<svg aria-hidden="true" style="width:0;height:0;position:absolute;overflow:hidden" xmlns="http://www.w3.org/2000/svg"><defs><symbol id="git" viewBox="0 0 33 32"><path d="M15.383.057c-1.457.113-2.39.277-3.577.617a16.192 16.192 0 0 0-6.127 3.317c-.507.43-1.47 1.41-1.9 1.927-2.133 2.577-3.37 5.563-3.72 8.983-.057.547-.057 2.353 0 2.917.353 3.573 1.717 6.733 4.043 9.367.403.46 1.277 1.313 1.713 1.68a16.49 16.49 0 0 0 4.7 2.77c.857.323.817.313 1.383.313.473 0 .54-.007.783-.09.367-.12.653-.3.913-.56.263-.263.44-.55.563-.913l.09-.267.017-2.617c.02-2.86.013-2.733.217-3.133.11-.21.17-.273 1.027-1.05.683-.617.77-.683.817-.64.033.027.42.357.863.737.827.703.937.813 1.027 1.03.167.397.163.347.183 3.04.023 2.84.013 2.72.273 3.25.207.413.567.77.997.977.42.203.76.273 1.237.247.31-.017.42-.04.807-.17 3.303-1.12 6.333-3.497 8.293-6.503 1.473-2.26 2.317-4.693 2.6-7.517.053-.533.053-2.25 0-2.817-.2-2.073-.72-3.95-1.59-5.733a15.732 15.732 0 0 0-3.013-4.263c-.913-.927-1.66-1.55-2.653-2.203-2.41-1.59-5.01-2.473-7.9-2.683-.423-.03-1.737-.037-2.067-.01zm2.684 1.656c2.9.363 5.46 1.47 7.733 3.347a19.11 19.11 0 0 1 1.853 1.857 14.723 14.723 0 0 1 3.38 8.33c.043.553.043 1.69 0 2.24-.377 4.783-3.003 9.027-7.133 11.53-.737.447-1.817.957-2.603 1.233-.303.107-.38.12-.6.11-.303-.013-.487-.113-.603-.337l-.077-.14-.02-2.5c-.017-2.363-.023-2.517-.087-2.8a4.094 4.094 0 0 0-.317-.93c-.11-.22-.43-.663-.533-.733-.06-.043-.05-.05.113-.07 4.017-.497 5.993-2.26 6.483-5.783.043-.313.057-.647.057-1.333 0-.87-.003-.937-.087-1.337a5.75 5.75 0 0 0-1.2-2.52l-.197-.243.083-.257c.153-.493.197-.883.177-1.587-.02-.69-.067-.987-.257-1.6-.143-.46-.157-.48-.383-.507-.677-.087-2.213.517-3.597 1.407l-.227.147-.49-.117a13.753 13.753 0 0 0-6.473.017l-.42.1-.313-.193c-1.397-.87-2.57-1.347-3.357-1.357-.413-.003-.397-.017-.543.457-.36 1.15-.377 2.363-.05 3.33l.053.157-.223.277c-.6.747-.99 1.573-1.183 2.53-.07.347-.077.463-.073 1.33 0 .81.013 1.02.077 1.433.15.973.323 1.547.687 2.283.557 1.12 1.337 1.893 2.5 2.473.863.433 1.777.687 3.14.88l.277.037-.177.193c-.33.367-.583.907-.707 1.517-.03.147-.07.277-.093.29s-.197.077-.39.14c-.913.303-1.81.283-2.477-.053-.54-.27-.9-.62-1.363-1.33-.497-.753-.96-1.133-1.7-1.39-.293-.103-.39-.12-.643-.12-.44-.003-.583.053-.583.24 0 .18.33.517.733.747.083.05.27.21.41.36.397.413.747.977 1.04 1.683.087.203.19.427.233.503.417.713 1.237 1.173 2.373 1.333.47.067 1.617.047 2.077-.037.157-.027.287-.05.293-.05.003 0 .007.66.007 1.467 0 1.58-.003 1.607-.177 1.797-.21.227-.617.267-1.067.107a14.83 14.83 0 0 1-8.65-8.12c-.623-1.46-1-3-1.14-4.633a19.986 19.986 0 0 1 0-2.27c.257-3.26 1.52-6.227 3.703-8.7 2.39-2.703 5.897-4.5 9.447-4.843.203-.02.413-.043.467-.05.057-.007.61-.01 1.233-.003.81.007 1.26.023 1.583.063zm-7.694 8.054c.563.28.977.52 1.553.907l.443.297.473-.133c1.353-.383 2.483-.53 3.807-.493 1.093.03 1.943.16 3.107.477l.543.147.523-.347c.813-.537 2.003-1.17 2.07-1.103.013.013.023.22.023.46-.003.553-.053.787-.33 1.477l-.213.527.403.437c.507.547.753.88.94 1.263.317.653.417 1.143.417 2.02 0 1.273-.193 2.26-.607 3.08-.197.39-.37.633-.673.95-.613.633-1.357 1.017-2.537 1.307-.503.123-1.207.223-2.763.397l-1.227.137-1.39-.153c-1.913-.21-2.43-.3-3.22-.55-2.173-.693-3.18-2.32-3.19-5.15-.007-.893.123-1.48.46-2.113.21-.4.38-.623.86-1.143.23-.25.42-.47.42-.49 0-.017-.097-.277-.217-.577a5.094 5.094 0 0 1-.267-.84c-.05-.293-.07-.9-.03-1 .027-.073.07-.057.62.213z"/></symbol><symbol id="mail" viewBox="0 0 32 32"><path d="M16 0C7.163 0 0 7.163 0 16s7.163 16 16 16 16-7.163 16-16S24.837 0 16 0zM8 8h16c.286 0 .563.061.817.177L16 18.463 7.183 8.176c.254-.116.531-.177.817-.177zM6 22V10c0-.042.002-.084.004-.125l5.864 6.842-5.8 5.8A1.983 1.983 0 0 1 5.999 22zm18 2H8c-.177 0-.35-.024-.517-.069l5.691-5.691L16 21.537l2.826-3.297 5.691 5.691c-.167.045-.34.069-.517.069zm2-2c0 .177-.024.35-.069.517l-5.8-5.8 5.865-6.842c.003.041.004.083.004.125v12z"/></symbol><symbol id="facebook" viewBox="0 0 32 32"><path d="M19 6h5V0h-5c-3.86 0-7 3.14-7 7v3H8v6h4v16h6V16h5l1-6h-6V7c0-.542.458-1 1-1z"/></symbol><symbol id="linkedin" viewBox="0 0 32 32"><path d="M12 12h5.535v2.837h.079c.77-1.381 2.655-2.837 5.464-2.837C28.92 12 30 15.637 30 20.367V30h-5.769v-8.54c0-2.037-.042-4.657-3.001-4.657-3.005 0-3.463 2.218-3.463 4.509V30H12V12zM2 12h6v18H2V12zM8 7a3 3 0 1 1-6 0 3 3 0 0 1 6 0z"/></symbol><symbol id="email2" viewBox="0 0 32 32"><path d="M26.71 26.66H5.29a4.255 4.255 0 0 1-4.25-4.25V9.59a4.255 4.255 0 0 1 4.25-4.25h21.42a4.255 4.255 0 0 1 4.25 4.25v12.82a4.255 4.255 0 0 1-4.25 4.25zM5.29 6.84a2.75 2.75 0 0 0-2.75 2.75v12.82a2.75 2.75 0 0 0 2.75 2.75h21.42a2.75 2.75 0 0 0 2.75-2.75V9.59a2.75 2.75 0 0 0-2.75-2.75z"/><path d="M16 19.04h-.007a4.234 4.234 0 0 1-2.569-.863l.011.008L1.76 9.355a.75.75 0 1 1 .906-1.194l-.001-.001L14.34 17c.457.344 1.034.551 1.66.551s1.203-.207 1.667-.556L17.66 17l11.675-8.84a.75.75 0 1 1 .907 1.193l-.002.002-11.675 8.83a4.222 4.222 0 0 1-2.558.855H16z"/><path d="M2.085 24.57h-.001a.75.75 0 0 1-.5-1.309l.001-.001 9.2-8.205a.75.75 0 1 1 1.001 1.119l-.001.001-9.2 8.205a.726.726 0 0 1-.491.19h-.009zm27.83 0h-.009a.726.726 0 0 1-.492-.191h.001l-9.2-8.205a.75.75 0 1 1 1.001-1.12l-.001-.001 9.195 8.205a.75.75 0 0 1-.499 1.31h-.001z"/></symbol><symbol id="email3" viewBox="0 0 32 32"><path d="M29.002 4H2.999a3 3 0 0 0-3 3v18a3 3 0 0 0 3 3h26.003a3 3 0 0 0 3-3V7a3 3 0 0 0-3-3zm2 20.555-9.459-9.459 9.459-6.028v15.488zM2.998 5h26.003c1.103 0 2 .897 2 2v.883l-13.767 8.774a2.203 2.203 0 0 1-2.425-.035L.999 7.236v-.235c0-1.103.897-2 2-2zM.999 8.443l9.592 6.52-9.592 9.593V8.443zM29.002 27H2.999a2.002 2.002 0 0 1-1.833-1.201l-.005-.013 10.26-10.26 2.828 1.922a3.178 3.178 0 0 0 1.801.554c.639 0 1.235-.187 1.735-.51l-.013.008 2.921-1.862 10.149 10.148A2.007 2.007 0 0 1 29.004 27z"/></symbol><symbol id="facebook2" viewBox="0 0 32 32"><path d="M24 3H8a5 5 0 0 0-5 5v16a5 5 0 0 0 5 5h8a1 1 0 0 0 1-1v-8a1 1 0 0 0-1-1h-1v-2h1a1 1 0 0 0 1-1v-3.5a2.5 2.5 0 0 1 2.5-2.5H22v2h-1a2 2 0 0 0-2 2v2a1 1 0 0 0 1 1h1.72l-.5 2H20a1 1 0 0 0-1 1v4a1 1 0 0 0 2 0v-3h1.029a1 1 0 0 0 .969-.753L23 20.24l1-4a.996.996 0 0 0-.181-.862l.002.002a1 1 0 0 0-.822-.38h.002-2v-1h2a1 1 0 0 0 1-1V9a1 1 0 0 0-1-1h-3.5a4.51 4.51 0 0 0-4.5 4.499V15h-1a1 1 0 0 0-1 1v4a1 1 0 0 0 1 1h1v6h-7a3 3 0 0 1-3-3V8a3 3 0 0 1 3-3h16a3 3 0 0 1 3 3v16a3 3 0 0 1-3 3h-4a1 1 0 0 0 0 2h4a5 5 0 0 0 5-5V8a5 5 0 0 0-5-5z"/></symbol><symbol id="facebook1" viewBox="0 0 32 32"><path d="M18.165 31.788a.705.705 0 0 1-.703-.702V20.688c0-.388.315-.703.703-.703h3.025l.365-2.847h-3.39a.703.703 0 0 1-.703-.703V13.72c0-1.19.29-2.773 2.799-2.773h1.537V8.481a33.114 33.114 0 0 0-2.561-.101c-2.967 0-4.738 1.838-4.738 4.918v3.136a.703.703 0 0 1-.703.703h-2.95v2.847h2.95c.388 0 .703.315.703.703v10.398c0 .204-.088.398-.243.531s-.359.193-.561.164C5.988 30.657.176 23.899.176 16.062.176 7.302 7.267.176 15.982.176s15.806 7.127 15.806 15.886c0 7.839-5.814 14.597-13.522 15.719a.686.686 0 0 1-.101.007zm.702-10.398v8.86c6.62-1.358 11.516-7.317 11.516-14.188 0-7.985-6.461-14.481-14.401-14.481S1.581 8.077 1.581 16.062c0 6.87 4.895 12.829 11.513 14.188v-8.86h-2.95a.703.703 0 0 1-.703-.703v-4.252c0-.388.315-.703.703-.703h2.95v-2.433c0-3.9 2.354-6.323 6.143-6.323 1.68 0 3.02.129 3.357.174a.702.702 0 0 1 .609.696v3.803a.702.702 0 0 1-.702.703l-2.24.001c-1.262 0-1.394.417-1.394 1.368v2.012h3.486a.704.704 0 0 1 .697.793l-.546 4.252a.703.703 0 0 1-.697.613h-2.94z"/></symbol><symbol id="facebook3" viewBox="0 0 32 32"><path d="M23.987 2.128a37.258 37.258 0 0 0-4.049-.207c-4.484 0-7.271 2.855-7.271 7.453v3.121H8.9a.667.667 0 0 0-.667.666v5.135c0 .368.298.666.666.667h3.768v10.292c0 .368.298.666.666.667h5.304a.667.667 0 0 0 .667-.666V18.964h3.755a.667.667 0 0 0 .661-.581l.663-5.134a.667.667 0 0 0-.662-.753h-4.418V9.884c0-1.293.26-1.833 1.878-1.833L23.9 8.05a.667.667 0 0 0 .667-.666V2.791a.666.666 0 0 0-.579-.661zm-.754 4.587-2.052.001c-2.878 0-3.211 1.807-3.211 3.167v3.279c0 .368.298.666.666.667h4.328l-.491 3.801h-3.836a.667.667 0 0 0-.667.666v10.292H14V18.296a.667.667 0 0 0-.666-.667H9.566v-3.801h3.767a.667.667 0 0 0 .667-.666V9.373c0-3.832 2.22-6.12 5.938-6.12 1.345 0 2.56.073 3.296.137v3.324z"/></symbol><symbol id="linkedin2" viewBox="0 0 32 32"><path d="M10.001 12H4.667a.667.667 0 0 0-.667.666v16.001c0 .368.298.666.666.667H10a.667.667 0 0 0 .667-.666V12.667a.667.667 0 0 0-.666-.667zm-.668 16h-4V13.333h4V28zM24 12a6.57 6.57 0 0 0-4 1.358v-.691a.667.667 0 0 0-.666-.667H14a.667.667 0 0 0-.667.666v16.001c0 .368.298.666.666.667H19.333a.667.667 0 0 0 .667-.666V21.334a2 2 0 1 1 4 0v7.333c0 .368.298.666.666.667H30a.667.667 0 0 0 .667-.666V18.667A6.675 6.675 0 0 0 24 12zm5.333 16h-4v-6.667a3.333 3.333 0 1 0-6.666 0V28h-4V13.333h4v1.604c0 .283.179.536.447.629a.66.66 0 0 0 .741-.212 5.31 5.31 0 0 1 9.479 3.313V28zM7.824 2.669a3.525 3.525 0 0 0-.471-.002 3.654 3.654 0 0 0-3.901 3.638 3.613 3.613 0 0 0 3.825 3.638h.038a3.645 3.645 0 1 0 .509-7.273zm-.046 5.944a2.311 2.311 0 0 1-.463-.004h-.038a2.315 2.315 0 1 1 .075-4.61 2.316 2.316 0 1 1 .425 4.613z"/></symbol><symbol id="linkedin1" viewBox="0 0 32 32"><path d="M7.573 10.453H.906a.421.421 0 0 0-.427.427v19.947c0 .213.16.427.427.427h6.613c.213 0 .427-.16.427-.427v-20a.364.364 0 0 0-.373-.373zM7.147 30.4H1.334V11.253h5.813V30.4zM4.267.8C1.867.8.107 2.4.107 4.64S1.814 8.48 4.16 8.48h.107c2.4 0 4.16-1.6 4.16-3.84C8.32 2.4 6.667.8 4.267.8zm0 6.933C2.294 7.733.96 6.453.96 4.693.96 2.88 2.293 1.6 4.267 1.6c1.92 0 3.253 1.227 3.307 3.04 0 1.813-1.333 3.093-3.307 3.093zm19.573 2.24c-2.88 0-4.533 1.227-5.6 2.453v-1.6a.421.421 0 0 0-.427-.427H11.2c-.107 0-.213.053-.267.107s-.107.16-.107.32c.107 1.813 0 19.733 0 19.947 0 .107.053.213.107.267s.16.107.267.107h6.613c.213 0 .427-.16.427-.427V19.627c0-.693.053-1.173.213-1.493.267-.64 1.067-2.187 3.04-2.187s2.933 1.387 2.933 4.107v10.667c0 .213.16.427.427.427h6.613c.213 0 .427-.16.427-.427v-11.36c0-5.867-3.04-9.387-8.053-9.387zm7.2 20.427h-5.813V20.107c0-3.147-1.333-4.907-3.733-4.907-1.707 0-3.093 1.013-3.787 2.667-.16.427-.267.96-.267 1.76V30.4h-5.813c0-2.56.053-16.16 0-19.147h5.813v2.293a.33.33 0 0 0 .053.373.447.447 0 0 0 .373.213c.213 0 .373-.16.373-.32.96-1.44 2.453-3.04 5.6-3.04 4.587 0 7.253 3.147 7.253 8.587v11.04z"/></symbol></defs></svg>