<svg aria-hidden="true" style="width:0;height:0;position:absolute;overflow:hidden" xmlns="http://www.w3.org/2000/svg"><defs><symbol id="arrow-left" viewBox="0 0 32 32"><path fill="var(--current-color)" d="M25.4 14.6H9.8l7-7c.6-.6.6-1.4 0-1.8-.6-.6-1.4-.6-1.8 0L5.8 15c-.2.2-.2.4-.4.4v.4c0 .2 0 .4.2.6 0 .2.2.2.2.2v.2l9.4 9.4c.2.2.6.4 1 .4s.6-.2 1-.4c.6-.6.6-1.4 0-1.8l-7.4-7h15.4c.8 0 1.4-.6 1.4-1.4s-.6-1.4-1.2-1.4z"/></symbol><symbol id="agree" viewBox="0 0 32 32"><path fill="var(--current-color)" d="M14.836 31.127h-.873c-.873 0-1.745-.582-2.327-1.164L3.2 16.872c-1.164-1.164-.582-2.909.582-4.073 1.455-.873 3.2-.582 4.073.873l6.109 9.309L24.146 2.908c.582-1.455 2.327-2.036 3.782-1.164 1.455.582 2.036 2.327 1.164 3.782L17.165 29.381c-.291 1.164-1.455 1.745-2.327 1.745z"/></symbol><symbol id="close" viewBox="0 0 32 32"><path fill="var(--current-color)" d="M28.6 31.4 16 18.8 3.4 31.4.6 28.6 13.2 16 .6 3.4 3.4.6 16 13.2 28.6.6l2.8 2.8L18.8 16l12.6 12.6z"/></symbol><symbol id="film" viewBox="0 0 32 32"><path fill="var(--current-color)" d="M26.4 30.667H5.6c-2.4 0-4.267-1.867-4.267-4.267V5.6c0-2.4 1.867-4.267 4.267-4.267h20.8c2.4 0 4.267 1.867 4.267 4.267v20.8c0 2.4-1.867 4.267-4.267 4.267zM24 28h2.4c.933 0 1.6-.667 1.6-1.6V24h-4v4zm-13.333 0h10.667V17.333H10.667V28zM4 24v2.4c0 .933.667 1.6 1.6 1.6H8v-4H4zm20-2.667h4v-4h-4v4zm-20 0h4v-4H4v4zm20-6.666h4v-4h-4v4zm-13.333 0h10.667V4H10.667v10.667zm-6.667 0h4v-4H4v4zM24 8h4V5.6c0-.933-.667-1.6-1.6-1.6H24v4zM4 8h4V4H5.6C4.667 4 4 4.667 4 5.6V8z"/></symbol><symbol id="heart" viewBox="0 0 32 32"><path fill="var(--current-color)" d="m16 30.583-2.24-2.24C5.44 20.983 0 16.023 0 9.943c0-4.96 3.84-8.8 8.8-8.8 2.72 0 5.44 1.28 7.2 3.36 1.76-2.08 4.48-3.36 7.2-3.36 4.96 0 8.8 3.84 8.8 8.8 0 6.08-5.44 11.04-13.76 18.4L16 30.583z"/></symbol><symbol id="search" viewBox="0 0 32 32"><path fill="var(--current-color)" d="M28 29.333c-.267 0-.8 0-1.067-.267l-4.8-5.067c-2.133 1.6-4.533 2.667-7.467 2.667-6.667 0-12-5.333-12-12s5.333-12 12-12 12 5.333 12 12c0 2.933-1.067 5.333-2.667 7.467l4.8 4.8a1.29 1.29 0 0 1 0 1.867c0 .533-.533.533-.8.533zm-13.333-24c-5.067 0-9.333 4.267-9.333 9.333s4.267 9.333 9.333 9.333c2.4 0 4.8-1.067 6.4-2.667 1.6-1.6 2.667-4 2.667-6.4.267-5.333-4-9.6-9.067-9.6z"/></symbol><symbol id="user" viewBox="0 0 32 32"><path fill="var(--current-color)" d="M32 0H0v32h32V0z"/><path fill="#fff" style="fill:var(--color1,#fff)" d="M20.809 24.898c-.687-.4-.982-1-.982-1.7v-1.7c0-.1.098-.3.098-.4a11.694 11.694 0 0 0 1.767-3.701c0-.1.098-.3.196-.4.393-.4.589-.8.589-1.3v-2.101c0-.4-.098-.8-.393-1.1-.098-.1-.098-.3-.098-.4V8.995c0-1.901-.883-3.501-3.043-4.301-.982-.3-1.963-.5-2.945-.4-.982 0-1.963.1-2.945.4-2.159.7-3.043 2.401-3.043 4.301v3.101c0 .1-.098.3-.098.4-.196.3-.393.7-.393 1.1v2.101c0 .5.196 1 .589 1.3.098.1.196.2.196.4.393 1.3.982 2.501 1.767 3.701.098.1.098.2.098.4v1.7c0 .8-.294 1.4-.982 1.7-1.865 1-11.19 1.9-11.19 7.102h31.999c.098-5.201-9.325-6.002-11.19-7.102z"/></symbol></defs></svg>