<svg aria-hidden="true" style="width:0;height:0;position:absolute;overflow:hidden" xmlns="http://www.w3.org/2000/svg"><defs><symbol id="icon-logo" viewBox="0 0 32 32"><path d="M26.4 30.667H5.6c-2.4 0-4.267-1.867-4.267-4.267V5.6c0-2.4 1.867-4.267 4.267-4.267h20.8c2.4 0 4.267 1.867 4.267 4.267v20.8c0 2.4-1.867 4.267-4.267 4.267zM24 28h2.4c.933 0 1.6-.667 1.6-1.6V24h-4v4zm-13.333 0h10.667V17.333H10.667V28zM4 24v2.4c0 .933.667 1.6 1.6 1.6H8v-4H4zm20-2.667h4v-4h-4v4zm-20 0h4v-4H4v4zm20-6.666h4v-4h-4v4zm-13.333 0h10.667V4H10.667v10.667zm-6.667 0h4v-4H4v4zM24 8h4V5.6c0-.933-.667-1.6-1.6-1.6H24v4zM4 8h4V4H5.6C4.667 4 4 4.667 4 5.6V8z"/></symbol><symbol id="icon-close" viewBox="0 0 32 32"><path d="M22.72 24.213 16 17.493l-6.72 6.72-1.493-1.493 6.72-6.72-6.72-6.72L9.28 7.787l6.72 6.72 6.72-6.72 1.493 1.493-6.72 6.72 6.72 6.72z"/></symbol><symbol id="icon-arrow-left" viewBox="0 0 32 32"><path d="M16 26.6c-.4 0-.6-.2-1-.4L5.8 17l-.4-.4c0-.2 0-.4-.2-.4 0-.2 0-.4.2-.4 0-.2.2-.4.2-.4L15 6c.6-.6 1.4-.6 1.8 0 .6.6.6 1.4 0 1.8l-7 6.8h15.4c.8 0 1.4.6 1.4 1.4s-.6 1.4-1.2 1.4H9.8l7 7c.6.6.6 1.4 0 1.8-.2.4-.4.4-.8.4z"/></symbol><symbol id="icon-arrow-right" viewBox="0 0 32 32"><path d="M16 26.6c-.4 0-.6-.2-1-.4-.6-.6-.6-1.4 0-1.8l7-7H6.6c-.6 0-1.2-.6-1.2-1.4s.6-1.4 1.2-1.4H22l-7-7c-.6-.6-.6-1.4 0-1.8.6-.6 1.4-.6 1.8 0l9.4 9.4c.2.2.2.2.2.4v.8c0 .2-.2.4-.2.4l-9.4 9.4c-.2.4-.4.4-.8.4z"/></symbol><symbol id="icon-no-items" viewBox="0 0 1200 1200"><path d="M291.08 1183.95c-26.25.16-52.46-1.68-78.7-1.67-6.57.22-13.13.3-19.69.41-5 .6-23.5 2.4-15.43-6.91 2.76-11.96 6.59-20.05-3.52-30.32-13.12-10.83-35.68-13.18-40.54-32.06-4.05-25.83 28.93-38.94 28.21-63.76-.77-10.31-4.2-20.74-12.59-27.33.13.12.26.24.39.37-6.78-6.68-15.18-11.28-23.85-15.06.08.04.17.07.26.11-13.71-6.55-29.81-10.85-39.69-23.1-10.69-13.91-6.8-35.48 6.95-45.91 22.73-18.68 52.37-25.66 80.01-33.89 43.58-12.14 88.26-21.15 133.47-23.95h-.05c1.16-.04 2.31-.16 3.46-.16h-.02c23.11-1.42 46.1.76 68.34 7.32-.13-.03-.27-.07-.4-.1 12.64 3.75 25.61 7.22 37.55 12.89 20.8 11.93 37.99 33.03 38.17 57.88-.11 18.37-11.86 33.57-15.76 51.06-8.3 39.41 55.03 34.11 62.52 66.76 3.99 19.52-6.62 38.45-12.95 56.41-4.1 9.75-8.4 19.5-10.83 29.84-.53 3.13-1.01 7.27-4.71 8.1-51.15 7.73-103.01 9.86-154.64 12.38.04 0 .07-.01.11-.01-8.68.37-17.37.77-26.07.7zm-67.01-9.34c29.46 1.2 58.98 2.71 88.48 1.53-.02 0-.04 0-.06.01l.37-.02-.33.02 2.42-.11c-.17.01-.33.01-.5.03 14.14-.61 28.28-1.13 42.4-2.11h-.02c37.17-2.39 74.63-3.78 111.32-10.55 2.74-15.74 10.65-29.87 16.02-44.76-.07.2-.14.41-.22.61 23.32-56.73-4.04-49.4-42.19-76.22-14.7-9.49-15.77-28.28-9.43-43.2 3.78-12.06 11.28-22.77 13.09-35.44 3.19-23.27-12.96-44.25-31.61-56.29-12.58-7.25-27.13-10.58-40.92-14.84-20.85-6.06-42.41-7.55-64.02-6.36l.41-.02c-50.79 2.75-100.87 13.4-149.6 27.66-26.95 9.18-92.07 25.58-67.86 65.25-.03-.04-.06-.09-.1-.13 11.41 12.63 29.4 15.84 43.97 23.61 13.38 6.86 27.4 17.18 31.02 32.56 10.3 32.8-17.82 42.34-26.14 68.11-3.82 19.37 21.97 23.59 34.07 32.01 13.8 8.53 15.39 25.8 8.67 39.46 13.55-.19 27.17-1.15 40.76-.81z" fill="#3c3c3b"/><path d="M179.3 1182.83c-27.96.22-54.82-9.33-82.79-9.27-18.76-.61-39.77 4.24-56.81-5.59-6.21-4.1.47-11.33 1.32-16.74 13.28-34.63 21.48-70.83 29.84-106.89 3.47-16.07 6.68-32.24 8.57-48.59 1.12-11.26.33-23.35 2.2-34.2 4.91-2.18 2.72 13.78 3.24 16.5 1.26 27.94-5.04 55.49-11.08 82.6-6.91 30.54-14.71 60.95-26.11 90.16.01-.03.02-.07.04-.1-.06.15-.11.31-.17.46l.03-.09c-1.04 2.87-2.11 5.74-3.15 8.62.06-.15.11-.29.16-.44-.29.82-.62 1.64-.88 2.47 17.36 11.01 50.33 1.81 71.36 5.44h-.01c.16.02.32.03.49.05l-.16-.02.31.03c-.05-.01-.1-.01-.14-.01.16.02.32.03.49.05-.02 0-.04-.01-.06-.01 14.6 1.57 28.98 4.62 43.5 6.7 5.9 1.46 20.56-1.64 23.95 2.06 1.78 2.85-.86 6.93-4.14 6.81zm284.2-14.17c.32-8.09 16.33-5.16 21.95-5.49 7.5.48 15-.58 22.5-.85-6.93-24-10.88-48.55-13.04-73.38-.56-3.69-.79-7.43-1.8-11.04-.77-2.12-1.67-4.95.8-6.3 1.78-1.16 4.44.54 3.43 2.67 5.09 14.2 5.15 29.62 7.72 44.37 1.46 6.33 3.45 12.53 4.52 18.95 1.49 7.72 3.67 15.28 5.57 22.91 3.5 8.28-6.65 9.25-12.46 9.06.02 0 .05 0 .07-.01-9.1.92-18.16.61-27.27.71-3.82-.99-10.59 3.8-11.99-1.6zm-2.81-119.6c-4.64-3.48-3.68-19.72-4.9-25.81-2.31-16.56-3.75-33.19-5.2-49.84-1.26-9.8-4.21-19.27-5.66-29.04.02.09.04.19.06.29-.25-3.65-4.59-14.11.39-15.3.69.12 1.09.76 1.07 1.42 0-.01 0-.02.01-.03 1.4 12.44 6.33 24.33 8.75 36.63 2.94 16.67 3.45 33.69 6.61 50.37 1.01 7.48 1.4 15.04 2.69 22.48 1.24 3.65 1.95 9.78-3.82 8.83zm-17.38-28.05c.16-3.97-2.45-12.19-.41-15.02 2.16-.79 1.08 2.34 1.61 3.47-.01-.06-.02-.11-.03-.16.22 3.01 3.65 10.85.8 12.61-.76.31-1.78-.01-1.97-.9zm4.85-16.49c.01-1.89-1.98-6.81.27-7.5 1.89.25 1.47 4.58 2.52 6.13.79 1.71-2.11 3.39-2.79 1.37zm3.07 22.87c.22-2.17-2.17-6.97 1.31-7.15 1.77.78 1.04 4.35 1.86 6.09.56 1.98-2.73 3.41-3.17 1.06z" fill="#3c3c3b"/><path d="M494.31 1129.34c-.94-2.91-1.44-6.08-1.2-9.13.22-.99 1.71-1.54 2.31-.58.38 1.67.32 3.55 1 5.25.34 1.63 1.98 3.89.01 5.05-.71.4-1.8.26-2.12-.59zm-12 15.5c-.59-3.05-.21-6.24-.2-9.33.18-1.96 3.39-2.28 3.24-.03.01-.04.01-.08.01-.12-.67 3.2 2.71 8.7-.57 10.61-.98.42-2.2-.01-2.48-1.13zm11.65 5.5c-.04-1.97-.16-3.96.18-5.91.31-2.45 4.2-2.09 3.26.5 0-.01.01-.01.01-.01-.56 2.19 1.57 5.79-1.39 6.79-.92.24-2.01-.34-2.06-1.37zM93.38 1020.6c-3.94-.53-1.51-5.34-1.22-7.82 1.12-5.25 1.93-10.56 2.41-15.91-.01.06-.01.11-.01.17.01-.11.02-.21.02-.31-.01.04-.01.09-.01.14.14-2.15.59-14.58 4.45-9.49-.37 5.35.69 33.19-5.64 33.22zm-6.67 29.97c-3.44-.47-1.42-4.73-.87-6.84 1.64-4.23 1.84-9.46 4.71-13.04.97-.91 2.72-.26 2.64 1.14-.28 1.22-.99 2.31-1.12 3.62-1.59 3.6-.96 14.83-5.36 15.12zm26.44-33.83c-3.45-.51-1.15-4.57-.69-6.65 1.09-3.37 1.64-6.98 3.19-10.16.91-1.97 4.02-.83 2.41 1.11-1.67 3.45-.83 16.02-4.91 15.7zm-6.83 16.21c-3.19-.33-1.83-3.91-.99-5.83 1.22-2.22 1.04-6.97 4.33-6.95 2.66.8.54 3.97.35 5.77-.69 2.48-.18 6.88-3.69 7.01zm-10.58 40.89c-3.64-1.21-.41-5.66.11-8.08 1.96-5.88 3.9-11.76 6.06-17.57.7-4.35 6.55-3.03 3.27.56-1.9 4.09-4.84 26.72-9.44 25.09zm-17.03 29.3c-3.51-1.23-.12-5.47.34-7.8 0 .01 0 .01-.01.01 1.84-3.05 1.45-9.79 5.41-10.57 1.29.07 1.61 1.74.81 2.59-1.56 3.78-1.67 15.65-6.55 15.77zm6.28-33.14c-.99-.18-1.55-1.27-1.22-2.21 1.16-1.96 1.09-6.2 3.94-6.23 1.07.18 1.46 1.44.99 2.34-.97 2-.71 6.23-3.71 6.1zm56.79-36.58c-3.38-.47-1.06-4.31-.57-6.28.92-1.67 2.69-14.77 5.45-11.13v-.01c-.82 5.05-1.82 10.09-2.35 15.19-.14 1.21-1.31 2.26-2.53 2.23zm-16.16 36.08c-4.32-1.41 1.5-9.2 1.52-12.46 1.34-2.69.33-9.27 4.54-8.86 2.67.82-.93 8.73-.92 11.21-1.43 3.15-.6 9.99-5.14 10.11zm-3.99-14.59c-3.85-1.34-.28-6.15.02-8.81 1.15-3.95 1.96-7.98 2.89-11.98 1.66-6.85 3.39-13.69 4.81-20.6.5-1.5.38-5.11 2.7-4.57.4.22.52.64.46 1.06.01 0 .01-.01.01-.01-1.14 5.59-4.77 47.16-10.89 44.91zm-14.12 47.3c-4.84-1.19.76-7.9 1.11-10.9-.04.09-.07.19-.11.29 1.91-2.88 3.9-18.34 7.67-16.63 1.99.16-2.77 12-2.96 14.25-1.68 3.28-1.61 12.61-5.71 12.99zm-15.7 41.7c-3.6-1.09-.61-5.12.27-7.26 2.13-3.71 2.77-8.5 5.54-11.73 4.31-1.12.07 6.88-.1 8.8-1.8 3.14-1.09 10.06-5.71 10.19zm-20.51-6.59c-3.12-2.09 1.37-6.26 1.66-9.04 1.32-2.24 1.23-7.92 4.47-7.85 2.04 1.3-1.17 6.33-1.22 8.53-1.14 2.65-.91 8.77-4.91 8.36zm48.45-.66c-3.49-1.18.79-5.66 1.34-7.82 1.03-1.5 1.35-4.59 3.22-5.03.11 2.19-1.57 4.91-1.84 7.33l.02-.08-.04.18.02-.09c-.65 1.8-.2 5.27-2.72 5.51zm32.75-98.85c.39-2.95 3.37-12.91 6.14-13.81 1.46-.18 1.72 1.85.62 2.51-1.19 3.63-2.51 7.3-2.93 11.12-.14 2.2-3.88 2.73-3.83.18zm-9.87 32.77c-3.47-1.09.46-7.87 1.26-10.18-1.17.38-.05-1.17.16-1.6-.01.01-.01.01-.01.02 4.05-7.95 1.97 4.22 1.12 6.55-.61 1.76.02 5.06-2.53 5.21zm-25.85 99.58c-1.99-2.61.65-5.99 1.18-8.75 4.03-12.59 8.55-25.03 12.74-37.57 2.23-5.3 3.4-17.48 8.77-19.87 1.56.11 2.27 2.44.78 3.21-4.09 17.06-8.19 34.11-14.09 50.67-2.14 3.72-2.89 16.38-9.38 12.31z" fill="#3c3c3b"/><path d="M119.64 1166.62c-5.31-1.38 2.39-13.93 2.82-17.8 3.09-8.65 6.13-17.35 8.08-26.35-.01.06-.03.12-.04.19.62-2.75 4.14-22.95 8.67-17.44l.01-.01c-4.01 16.42-5.83 33.02-12.35 48.98-2.11 3.74-1.86 12.23-7.19 12.43zm17.03-18.46c-4.55-1.94 1.62-9.15 2.05-12.53-.03.09-.07.19-.1.28.57-1.36.77-2.97 1.82-4.07 4.66-2.23 1.59 5.5 1.19 7.6-1.16 2.86-.76 8.81-4.96 8.72zm3.95 18.67c-4.12-.66 3.69-12.42 4.61-14.93 1.24-1.34 3.24.24 2.24 1.77-.82 1.17-1.09 2.66-1.64 3.98-1.65 2.58-1.55 9.09-5.21 9.18zm19.22-14.4c-3.4-1.74 1.14-6.3 1.71-8.83.65-.83.59-3.04 1.98-2.76 1.33.89-.99 12.96-3.69 11.59zm10.79 12.88c-3-1.14 2.18-6.94 2.38-9.27.07-.45.57-.91 1.05-.66.75 1.63-.85 3.91-.93 5.75l.04-.16c-.49 1.54-.24 4.53-2.54 4.34zM125.2 955.64c-.86-1.61-1.77-3.19-2.66-4.79-.81-1.04-.82-2.97.85-3.03 1.96 1.19 3.47 3.59 4.95 5.44 1.25 1.82-1.81 4.35-3.14 2.38zm10.82-3.81c-2.18-.92-2.24-4.07-3.46-5.9-.76-.21-.96-1.09-.66-1.76-.01.01-.01.02-.01.03 2.49-4.76 10.44 8 4.13 7.63zm10.62-5.06c-.14-2.78.69-5.5 1.73-8.04-.04.06-.07.13-.1.19v-.01c0 .01-.01.02-.01.03.01-.01.01-.01.01-.02-.01.03-.02.06-.02.09 1.26-2.56 3.77-.81 2.88 1.6.01-.08.01-.17.02-.24-.3 2.42.43 5.2-.79 7.39-1.07 1.57-3.78 1.1-3.72-.99zm17.96 1.42c-2.83-1.51.32-4.97 1.21-6.89.77-1.57 2.81-4.04 4.41-1.96l-.11-.14c1.19 1.83-.96 3.52-1.57 5.17-.85 1.58-1.57 4.51-3.94 3.82zm123.75-25.08c-.79-1.22-2.27-2.84-1.45-4.34.62-1.23 2.72-1.28 2.94.26.46.84 1.56 1.24 1.67 2.26.26 1.61-1.95 3.14-3.16 1.82zm12.48-1.38c-2.66-.68-.92-3.74-.54-5.48-.29-1.41.94-2.91 2.38-2.87 3.5.15 1.24 9.12-1.84 8.35zm11.79.06c-2.6-.59.53-6.97 2.46-6.35 2.73.54.02 7.46-2.46 6.35zm-25.19 148.59c-2.22-1.21-4.99-2.41-6.28-4.67-.12-3.99 4.04-1.21 5.88-.27l-.08-.04c1.59.66 4.22 1.34 3.2 3.6-.42 1-1.64 1.77-2.72 1.38zm7.29-3.67c-1.28-.94-.87-2.91-1.31-4.3-.29-1.81-1.01-3.59-.88-5.44.32-1.96 3.12-1.5 2.54.54 0-.06-.01-.12-.01-.18.26 2.7 5.36 9.97-.34 9.38zm9.4 2.44c-4.35-.86 2.47-11.18 4.42-12.28 1.99-.55 2.8 2.16 1.34 3.27-1.9 2.71-1.74 8.79-5.76 9.01zm9.05 2.41c-2.91-2.57 2.21-5.72 3.37-8.06.41-.89 1.19-1.79 2.29-1.58 2.79.96.04 3.87-.81 5.37-1.27 1.62-2.12 5.41-4.85 4.27zm-111.79 59.68c-1.6-1.87-7.8-5.89-3.4-7.82.52-.09 1.1.18 1.34.66 1.54 1.59 3.55 2.61 5 4.29 1.51 1.74-1.24 4.59-2.94 2.87zm6.73-4.69c-1.01-2.46-2.56-6.8-1.42-9.18 2.29 1.11 3.16 4.64 4.72 6.69 1.27 1.93-1.88 4.55-3.3 2.49zm9.63 1.19c-4.19-.8.82-10.15 3.72-9.36 2.38.86.19 3.35.07 4.99-.45 1.91-1.3 4.74-3.79 4.37zm10.41 1.64c-1.99-1.84.52-4 2-5.19 1.02-.96 2.6-3.16 3.8-1.17.66 2.08-3.33 8.31-5.8 6.36zm178.29-19.97c-2.11-1.49-3.75-3.54-5.29-5.59.04.06.09.11.14.15-.77-.77-.54-2.03.31-2.68 2.19-1.39 3.18 2.11 5.07 2.76 1.18.91 3.18 1.66 3.2 3.37 0 1.63-1.99 3.05-3.43 1.99zm5.45-5.7c-1.75-.97-3.8-9.33.19-8.09 1.12 1.44 1.32 3.59 2.37 5.23.67 1.51-.97 3.41-2.56 2.86zm7.61 2.25c-3.01-.87-.75-4.42-.03-6.27 1.04-1.6.86-4.71 3.27-4.82 1.36.01 1.93 1.67 1.22 2.71-1.15 2.67-.53 8.4-4.46 8.38zm8.94 2.76c-2.14-1.97.61-4.12 1.97-5.57 1.46-1.32 2.64-4.22 4.96-3.72 1.61.59 1.28 2.92-.08 3.61-2.09 1.8-3.32 7.54-6.85 5.68zm148.93-111.34c-28.57-3.2-37.88-28.11-24.28-52.02 11.15-18.27 35.65-20.55 54.46-14.45 19.45 5.72 22.84-2.44 37.29-12.48 13.55-8.68 32.41-13.71 46.73-4.04 9.5 5.86 21.68 10.36 32.08 4.12 14.82-7.95 36.82-21.4 51.63-7.17l-.04-.04c6.95 6.48 17.84 9.04 26.79 5.6 8.52-2.35 17.79-.71 25.76 2.8 24.57 11.6 28.14 43.39 2.02 55.7-34.78 20.63-58.01-19.87-87.81 7.06-10.9 8.1-26.23 11.89-38.79 5.42-7.27-3.35-13.67-10.1-22.17-9.81-8.21.65-14.94 5.95-22.27 9.16-12.77 4.87-25.55-5.12-38.54-3.19-3.98.63-7.1 4.01-10.98 4.55-8.95 7.09-20.49 10.64-31.88 8.79zm11.99-9.31c13.21.24 22.38-12.15 35.2-12.42 11.66-.7 23.66 8.42 34.87 3.11-.17.08-.34.16-.5.24.38-.19.76-.37 1.14-.56-.17.08-.34.16-.5.24 44.02-27.44 42.26 26.87 85.85-7.28 7.71-5.32 17.58-6.42 26.71-5.49l-.19-.02c.16.02.32.03.48.05-.03 0-.06-.01-.08-.01.05.01.09.01.14.01-.03-.01-.07-.01-.1-.01 12.74.87 24.11 8.78 37.04 7.72 24.12-.89 43.97-22.4 22.43-42.54.04.04.09.09.14.13-19.31-15.77-28.83-2.8-47.06-7.16-14.61-3.17-14.88-15.39-31.67-11.33-17.89 2.69-32.52 20.96-51.61 13.66-11.06-3.19-20.43-12.88-32.74-10.31-23.28 3.25-31.16 22.25-47.96 23.86-11.74.68-22.81-4.87-34.53-4.23-17.62 0-30.03 13-29.79 30.54.87 14.29 15.07 20.9 27.78 21.78-.22-.02-.44-.04-.65-.07 1.88.14 3.73.15 5.6.09z" fill="#3c3c3b"/><path d="M644.93 937.54c-.11-.17-.17-.36-.19-.56 2.66-7.03 17.94-12.62 25.19-12.49 2.13.31 4.99-.15 6.54 1.59 1.16 1.86-.54 4.47-2.67 4.41-9.02-.84-19.38.75-26.42 6.76-.49.86-1.87 1.23-2.45.29zm50.39-1.62c-1.97-.82-6.93-2.6-3.74-5.07 2.26-.49 7.91-.44 7.04 3.13-.38 1.32-1.92 2.47-3.3 1.94zm-51.63 33.62c-14.45-1.92-14.86-14.71-9.45-9.64-.04-.04-.07-.07-.12-.11 8.46 7.29 20.52 4.42 30.24 1.62 2.03-.46 5.07-3.29 6.58-.66 1.27 6.78-22.26 9.63-27.25 8.79zm38.6-9.91c-1.04-1.87 3.16-3.71 4.56-3.6 2.29 1.29-.09 3.66-2 3.49l.19-.04c-.93.06-1.99 1.26-2.75.15zm90.27-20.83c-13.43-4.42-24.59-12.19-38.71-4.13.06-.03.11-.06.17-.08-.77.49-2.04.95-2.41-.26.04-2.46 4.36-3.17 6.1-4.52 16.01-8.13 25.55 2.24 40.09 4.54 4.27.07 22.7-7.05 23.09-.56-.18 1.24-1.35 2.37-2.64 2.31-8.8-1.65-17 4.35-25.69 2.7zm29.62 26.96c-3.78-.47-15.79-1.86-13.33-7.55.82-1.37 2.73-2.14 4.11-1.09 9.9 8.07 36.07-.76 25.12-15.16-1.23-1.79-6.23-3.26-5.42-5.45.35-.8 1.36-1.35 2.16-.92 10.93 1.87 14.89 14.11 7.76 22.37-5.02 5.52-13.06 8-20.4 7.8zm-35.95-9.19.09.06c-4.79-2.13-10.19.1-15.04-.41-5.64-7.53 11.93-4.58 15.17-3.3 3.34.59 2.97 4.6-.22 3.65zm-187.11 19.45c-15.76-3.93-12.58-21.52.11-27.18 1.52-.41 4.64-2.83 5.4-.48.29 2.19-7.24 2.95-9.08 7.9-4.04 6.43-.41 11.63 6.22 13.69 3.04 1.74.53 6.74-2.65 6.07zm400.56 67.27c-24.07-.08-40.8-30.52-66.04-19.16.07-.03.14-.05.21-.07-.16.06-.32.11-.49.16l.06-.02-.09.03c.02-.01.04-.01.05-.02-9.5 3.62-18.29 8.98-27.78 12.66 1.14 1.02-.39 3.13-1.74 2.34-13.3 3.57-28.95 2.5-40.61-5.23-4.27-2.23-10.66-6.17-9.37-11.74-8.73-17.9 8.87-34.82 26.25-36.06 13.61-2.42 27.02 3.54 40.61 1.66 21.63-2.59 19.54-22.24 36.85-31.77-.14.09-.27.18-.41.27 13.55-9.18 31.78-9.82 46.41-2.83l-.04-.02c.12.06.25.11.37.16 0 0-.01 0-.01-.01 10.02 4.02 17.54 13.32 29.04 13.56 14.86 2.51 26.96-8.37 41.26-9.72 20.2-2.22 49.5 11.3 47.44 34.78-3.45 20.39-26.01 29.49-44.74 26.91-14.02-.32-31.97-11.78-42.48 2.53.03-.03.05-.05.07-.08l-.04.04.34-.38c-.22.24-.43.47-.64.71.03-.02.05-.06.07-.08-.11.12-.22.26-.34.38l.04-.04c-8.23 10.94-19.54 21.85-34.25 21.04zm4.14-7.48c11.4-1.01 19.24-9.67 26.03-17.99 14.64-19.68 38.96-3.67 58.52-5.6 12.35-.31 25.87-8.41 27.44-21.49-.05-15.89-18.31-24.59-31.96-26.95-15.68-2.74-28.41 9.15-43.51 9.97-22.58 2.13-28.8-12.72-48.09-17.49-14.02-3.46-29.66 1.12-39.43 11.78-6.88 8.22-10.43 19.94-21.41 23.84-15.24 7.41-31.6.52-47.49 1.16-17.8.49-32.69 14.33-20.1 31.44 11.6 8.47 27.47 8.82 40.8 4.3 26.36-10.78 42.55-23.17 69.41-4.16 8.99 5.89 18.61 11.87 29.79 11.19z" fill="#3c3c3b"/><path d="M872.65 1040.58c-14.09-2.12-36.25-9.38-37.72-25.9.39-1.76 3.1-1.19 1.92.52 1.93 3.78 4.18 7.48 7.8 9.88-.07-.05-.14-.1-.22-.14.26.17.52.34.79.52l-.01-.01c18.31 10.69 32.09 14.7 50.95 2.53 1.82-1.04 4.67-2.61 5.9.03 2.79 6.42-24.6 13.83-29.41 12.57z" fill="#3c3c3b"/><path d="M885.53 1036.15c-1.76-3.69 18.02-10.87 21.23-13.57 3.05-.92 9.43-5.85 11.53-1.93.31 1.16-.32 2.59-1.41 3.14-10.09 4.7-21.11 8.96-31.35 12.36zm117.66-52.99c-10.31-.31-18.17-7.63-27.17-11.69-13.84-5.64-32.92-3.1-40.51 10.98-1.13 1.28-3.46.37-3.02-1.41l-.02.04c5-10.66 16.24-17.79 28.08-17.58h-.01l.36-.02h-.01c10.93-.96 21.44 4 30.13 10.19l-.06-.04c4.62 3.76 10.34 4.45 15.93 5.48 2.83 2.52-.91 5.05-3.7 4.05zm17.97.13c-1.38-.37-5.22.79-4.91-1.48.8-1.29 2.72-.05 4.01-.45h-.08c7.43-.59 14.66-2.92 21.75-5.12-.09.03-.17.06-.26.09 1.31-.57 3.4-1.04 3.68.91 1.4 3.82-21.15 6.37-24.19 6.05zm-50 37.4c-8.44-1.36-16.01-5.97-23.39-10.07-1.87-1.29-5.63-1.62-4.71-4.72 1.42-4.17 6.12-1.66 8.58.08 4.52 2.87 9.49 4.95 14.21 7.45 12.18 6.17 23.91-2.02 33.55-9.01 1.89-1.58 10.45-5.86 10.58-1.56-.25.57-.89.94-1.5.76-2.61-.59-4.96 1.59-6.87 3.09.01-.01.01-.01.02-.01l-.26.22.14-.12c-8.3 7.75-18.2 15.65-30.35 13.89zm-73.54-8.44c-2.61-6.73 15.79-9.89 20.45-9.01 4.65.31 3.54 4.6.57 3.8-5.72-.96-11.85 1.39-16.72 4.31-1.22.89-2.92 2.36-4.3.9zm-34.29 8.52c-6.98-.07-17.85-8.42-12.33-15.54 1.93-.52.07 2.71 2.23 4.4-.05-.06-.1-.12-.14-.19.34.44.68.89 1.02 1.34-.02-.03-.04-.05-.06-.08.09.11.17.22.26.34-.06-.07-.11-.14-.16-.21 2.55 3.15 6.8 4.34 10.66 4.9 3.21.73 1.4 5.62-1.48 5.04zm217.08-23.53c-3.53-1.11-.22-5.02-.42-7.46.44-8-9.08-11.31-15.74-10.78-.71.1-1.28-.48-1.26-1.17.5-3.77 16.41-.39 17.62 2.86 2.69 2.73 4.44 6.2 3.7 10.1-.33 2.41-.53 6.77-3.9 6.45zm-585.52-231.6c-17.99-.57-24.18-13.02-35.65-24.05.07.07.15.14.22.21-8.25-7.27-12.25-7.05-21.76-2.71-10.25 1.85-21.22 2.66-31.02-1.64-17.87-9.03-18.78-33.97-6.72-48.21 6.55-7.61 16.24-11.8 25.87-13.98 15.91-3.45 31.22 2.54 46.59 5.68 8.55.57 18.02-.71 22.83-8.59 9.25-11.31 21.89-20.82 37.15-20.37 24.8-2.94 34.79 17.16 58.46 16.38 19.17-2.14 30.22-21.44 49.17-24.35-.18.03-.36.07-.54.1 30.7-6.77 77.12 23.73 51.58 56.08-9.7 11.81-25.88 9.17-38.62 14.86-15.27 6.02-20.03 22.69-31.99 32.48-16.86 13.8-39.49 1.14-54.04-10.24-12.06-8.8-23.65-2.67-31.1 8.52-10.02 11.48-24.38 22.11-40.43 19.83zm6.96-7.55c17.33-.54 27.24-16.31 38.55-27.05 12.84-9.56 26.84-3.83 37.73 5.57 12.79 8.3 32.11 15.51 43.04.62 16.71-24.8 25.53-30.25 54.97-35.58 27.46-10.81 11.11-42.32-11.36-47.52-12.97-4.81-27.89-3.76-39.4 4.19-6.43 4.41-11.88 10.4-19.27 13.28-19.36 10.38-38.23 1.29-55.01-9.41-20.28-8-39.99-2.22-52.43 15.74-6.05 9.22-18.17 10.81-28.38 10.33-16.17-2.84-32.77-9.9-49.11-3.9-33.26 9.86-27.18 54.97 9.73 49.07 6.33.06 11.24-4.26 17.13-5.67 24.04.79 26.82 32.52 53.81 30.33z" fill="#3c3c3b"/><path d="M490.88 748.64c-16.67-1.3-20.28-16.72-32.75-24.27.1.07.21.14.31.21-5.4-3.5-12.21-5.67-18.65-4.38l.2-.04c-16.54 7.65 2.93-15.37 28.94 4.12 8 7.77 13.83 17.81 26.35 18.2 3.23.95 9.01-3.07 10.23 1.51-.37 6.03-10.32 5.02-14.63 4.65zm23.85-15.68c-.11-.39.12-.76.44-.97 1.85-1.6 2.83-3.85 4.17-5.84.09-.14.19-.27.28-.41l-.18.27c2.48-3.05 4.91-6.81 8.91-7.9 2.06-.6 5.66-1.94 6.12 1.26.28 4.11-4.86 3.53-7.32 5.2-2.59 1.1-10.57 10.18-12.42 8.39zm68.76-42.1c-11.28-.77-19.6-8.71-29.2-13.54-12.07-4.57-29.42-8.28-39.15 2.51-1.64 3.16-5.3-.01-2.55-2.23 13.91-15.82 40.9-12.24 56 .11 5.21 3.15 10.6 6.03 16.66 7.09 3.86.9 1.74 6.74-1.76 6.06zm20.37-7.8c-.04-.39.24-.84.64-.92 3.74-1.31 7.48-2.7 11.05-4.44-.08.04-.17.08-.25.12 7.75-4.8 12.96-13.42 22-16.49 3.59-.84 12.95-5.37 13.66.57-.48 5.92-10.6 3.21-14.71 6.52-6.12 2.93-10.63 8.33-16.47 11.7-3.92 1.3-12.53 4.31-15.92 2.94zm69.29-2.3c.39-3.14-1.59-7.23-4.81-7.99.03 0 .06.01.09.01-2.21-.38-1-3.75.95-3.21l-.09-.03c4.81.98 10 5.22 9.58 10.54.13 3.49-5.66 4.73-5.72.68zm-73.71 46.19c-2.51-.05-3.01-3.38-1.32-4.84 1.62-1.54 4.1-.63 6.05-1.47 5.87-1.97 10.76-5.72 15-10.13 4.92-5.15 10.71-9.47 17.57-11.64 1.97-.37 6.45-2.68 7.12.19-.07 1.88-2.05 1.71-3.41 1.82-3.22.93-6.23 2.49-9.05 4.28l.11-.07c-.03.02-.06.04-.08.06.01-.01.03-.02.04-.03-.08.05-.16.11-.24.16.02-.01.03-.02.05-.03-10.02 7.87-17.42 21.67-31.84 21.7zM412.07 702.1c-1.22-5.48 12.19-13.17 16.81-12.65 2.99 2.72-.96 4.67-3.55 4.97-3.74 1.48-7.88 2.87-10.63 5.95-.08 1.26-1.33 3.21-2.63 1.73zM762.7 433.91c-23.07 2.36-35.92-21.45-57-25.52-7.45-1.18-12.84 4.82-19.34 7.3-7.58 2.82-15.67 4.54-23.79 4.44-25.13.31-49.15-22.41-33.04-47.01l-.06.09c.17-.25.34-.49.51-.74-.1.14-.2.29-.3.42.25-.36.49-.72.74-1.07-.07.1-.14.2-.21.31 14.46-19.68 33.75-18.77 55.37-14.36 6.56.62 14.21-.5 18.52-5.98 11.1-14.74 28.23-28.11 47.73-24.96 8.2 1.91 15.08 7.25 23.33 9.11 9.16 3.29 17.84-.52 25.42-5.67 11.33-6.18 23.71-10.87 36.73-11.33 33.2-2.61 60.73 31.41 42.8 62.02-13.04 16.86-26.46 15.92-45.21 11.13-6.86-.49-14.21 1.77-18.69 7.18-12.15 18.42-30.25 34.58-53.51 34.64zm2.22-6.55c46.44-2.73 39.02-51.03 82.2-38.8 30.73 7.23 43.79-34.28 22.05-52.6-10.75-10.76-26.79-13.4-41.3-10.45-27.43 4.44-35.51 26.31-65.23 11.43-13.63-9.12-30.86-4.4-42.44 5.88-6.99 5.53-10.94 14.53-19.01 18.66-16.69 8.28-35.8-5.64-52.42 3.04-13.85 5.83-24.8 24.55-12.34 37 12.64 12.38 31.87 12.3 47.8 7.21 2.5-2.79 6.79-3.55 10.16-5.02-.14.04-.29.09-.42.14 2.4-.89 4.82-1.69 7.36-2.07l-.46.09c25.25-4.06 38.75 28.64 64.05 25.49z" fill="#3c3c3b"/><path d="M746.4 409.93c-18.34-3.94-22.78-15.59-45.82-16.11.04.01.07.01.11.01-.08-.01-.16-.01-.24-.02.03.01.06.01.09.01-5.33-.7-10.55.96-15.34 3.15-1.91 1.49-3.71-.09-1.34-1.22-.01 0-.01.01-.01.01 6.85-3.96 14.26-6.34 22.23-5.41 7.7.48 16.06 1.47 22.69 5.68 5.77 3.82 12.04 7.13 18.74 8.93 2.98.64 1.6 5.17-1.11 4.97zm16.21-.37c-2.38-.53-1.11-3.91 1.02-3.32 7.77-.94 17.09-3.03 21.25-10.31 1.47-2.43 2.72-5 4.9-6.91 2.62-2.76 6.51.96 4.04 3.79-7.02 12.37-16.97 17.77-31.21 16.75zm39.56-26.57c-3.72-3.09 13.66-13.62 14.4-7.85-.07 4.4-7.28 3.27-10.12 5.64-1.66.35-2.49 2.96-4.28 2.21zm-25.4-26.55c-9.96-1.54-18.89-7.65-29.18-7.19-3.42.06-6.6 1.46-9.66 2.68-2.14-.24-1.34-3.1.42-3.32l-.04.02c6.16-3.28 13.26-4.2 20.1-3.01 6.7 1.91 13.52 3.7 20.02 6.21 2.64 1.06.86 5.09-1.66 4.61zm15.54-5c-2.72.21-2.76-3.23-.17-2.83 9.44-.52 15.54-8.02 23.73-11.45 1.16-.39 2.42.37 2.74 1.52.71 3.36-3.5 3.82-5.56 5.26-6.41 3.84-12.9 8.2-20.74 7.5zm55.77 27.94c-2.87-.53-16.36-.21-14.65-4.65 1.24-5.41 12.23 3.13 20.41-.46-.01 0-.01.01-.01.01 2.71-.81 5.1-2.29 7.15-4.22-.1.08-.2.17-.3.26 13.13-9.53 4.99-23.48-6.77-29.49.01.01.03.01.04.02-4.5-1.99-9.95-3.47-14.76-1.84-1.59.59-1.87-1.86-.42-2.18 14.03-5.2 33.31 3.47 34.23 19.45.53 12.88-12.64 23.35-24.92 23.1zM642.1 391.22c-4.24-5.5-2.96-16.28 4.12-18.65-.04 0-.08.01-.12.01 2.34-.27 1.81 3.32-.22 3.15-4.14 4.85-1.36 9 .97 13.54.04 2.3-3.26 4.11-4.75 1.95zM384.71 648.5c.01 0 .01.01.01.01-.13-.05-.26-.12-.38-.21.01.01.02.01.03.02-.09-.06-.17-.14-.24-.23.04.09.12.14.19.21-1.97-4.92.56-11.36.65-16.7 1.12-8.81 1.76-17.68 3.24-26.44 2.89-22.98 6.39-44.97 34.15-46.76 5.75-.47 9.01-2.18 10.33-8.05 2.07-5.71 4.01-11.47 5.32-17.41 4.05-15.86 5.52-34.05 16.57-46.86 17.76-18.45 44.9-20.07 56.31 5.85 11.2 21.88 5.84 50.4 20.1 70.71 7.67 5.25 16.14-11.4 32.07-2.57 17.46 12.26 17.85 37.07 20.84 56.34.04 7.59 3.5 15.92 1.13 23.19-1.57 2.26-5.59 1.61-5.44-1.46.16-6.37-1.04-12.71-1.51-19.05-2.36-23.7-5.8-72.37-41.11-50.93-21.21 5.34-22.27-44.13-25.64-57.82-5.88-32.55-29.97-44.9-54.35-19.11-9.44 14.58-9.94 33.05-14.75 49.4-8.12 27.84-9.24 19.15-32.24 27.47-15.76 7.54-15.84 50.82-20.89 67.71-1.26 2.7-.78 13.78-4.39 12.69z" fill="#3c3c3b"/><path d="M459.2 516.94c-2.63-.52.04-8.94.16-11.16.2-.74.98-1.32 1.76-1.19 2.14.94-.05 4.1.3 5.93l.02-.21c-.54 2.05.45 6.12-2.24 6.63zm9.18-14.67c-.92-1.6-.02-7.94 2.64-7.45 1.72.37 1.12 2.12.83 3.32.27 2.17-.6 6.17-3.47 4.13zm.77 20.6c-1.04-1.73.17-3.99-.22-5.93 0 .08.01.16.01.24-.12-1.69-.74-4.67 1.76-4.79 2.12.34 1.27 3.35 1.82 4.91.55 2.34.23 7.88-3.37 5.57zm11.75-25.33c-.16-1.79.07-3.62.54-5.35.36-1.62 2.99-1.34 2.47.44-.1 1.33.32 2.68.49 4 .4 2.08-3.14 3.33-3.5.91zm1.26 16.05c-.36-2.05-.27-6.97 2.94-4.94.79 1.16.03 2.72.47 4.04.37 2.04-3.05 3.27-3.41.9zm.83 22.43c.14-3.04-2.25-8.97 2.36-9.47 3.41.32 1.44 6.13 2.13 8.62.14 2.53-4.1 3.77-4.49.85zm-67.93 68.62c-3.07-.5-.99-4.56-.79-6.53.64-1.71.65-5.57 3.14-5.31 1.63.84-.05 2.95.09 4.34-.5 2.42 1.18 7.13-2.44 7.5zm6.04-19.69c-1-1.25.59-7.26 2.57-6.92 1.47.36.72 2.14.7 3.2.32 1.98-.76 5.59-3.27 3.72zm12.27.38c-1.15-2.21.74-4.9.75-7.27-.05-.86.76-1.67 1.62-1.52 1.59.56.51 2.82.87 4.11.39 2.18-.03 6.79-3.24 4.68zm-8.19 18.56c.14-3.52 1.09-7.05 2.95-10.05-.01.01-.01.02-.01.02 3.73-2.84.63 7.83 1.22 9.54.1 2.54-4.15 3.44-4.16.49zm-4.35 24.52c.37-3.38-.37-10.55 4.17-10.92 1.37.24 1.9 1.79 1.36 2.97-.71 2.17-.25 4.67-.32 6.96.19 2.94-4.78 4.38-5.21.99zm21.99-18.26c-1.49-1.21.22-10.06 2.62-9.45 1.45 1.12-.22 3.65.32 5.33.6 2.02-.22 5.59-2.94 4.12zm13.28 2.53c.59-2.37-1.46-7.16 1.75-7.87 2.1.24 1.04 5.42 1.75 7.2.35 2.24-3.4 3.32-3.5.67zm-1.09 21.39c.09-2.77-1.31-8.68 2.91-8.66 2.86 1.09.83 5.42 1.4 7.84.12 2.44-3.93 3.62-4.31.82zm61.01-35.62c.26-2.68-.99-9.02 2.49-9.59.76.14 1.14.96.92 1.66-.69 2.36-.21 4.9-.26 7.33.11 1.78-2.88 2.66-3.15.6zm9.51-11.76c-.39-2.19-1.36-5 .14-6.95.8-.88 2.47-.79 2.85.42-.01-.02-.01-.06-.03-.08.41 1.33.45 2.79.77 4.15l-.02-.09.06.28c0-.01-.01-.02-.01-.04 1.25 2.47-2.6 5.29-3.76 2.31zm18.27 5.68c-1.86-2.26-1.08-5.95-2.21-8.66-.64-1.95 2.66-3.61 3.33-1.37.2 2.65 4.15 10.93-1.12 10.03zm-1.52 18.06c.62-2.63-1.02-8.38 2.66-8.78.85.16 1.34 1.1 1.05 1.9-.43 2.12.19 4.29.25 6.42.14 2.4-3.95 3.27-3.96.46zm-15.75 13.35c-2.64-12.67 6.89-12.08 4.02-6.81-.44 2.68 1.8 7.13-1.64 8.4-1.07.29-2.28-.4-2.38-1.59zm-16.78 11.18c-1.14-1.31-.23-3.41-.27-5-.01.06-.01.12-.01.17-.03-1.66 2.71-2.22 2.72-.31.07 1.93.97 6.55-2.44 5.14zm40.15-6.82c-.32-2.87.87-9.73 4.85-6.17.82 1.73-.34 3.74-.03 5.6.13 2.94-4.75 3.99-4.82.57zm467.61 257.68c-3.93-3.59-2.14-16.41-3.67-22.03-2.71-15.32-3.72-32.11-11.52-45.82-8.81-11.3-25-9.48-36.6-15.84-19.57-12.1-17.26-46.86-24.88-66.82-15.06-40.05-51.64-23.32-57.21-73.18l.09.51c-5.29-27.41-1.01-55.78-6.47-83.25-2.01-15.53-3.88-31.11-10.36-45.54-3.07-8.23-6.85-16.48-13.68-22.27l.04.04c-22.81-22.81-59.26 3.3-68.33 27.91-9.91 26-1.37 54.24-4.85 81.16-3.02 35.24-32.62 46.69-39.68 75.29-2.36 11.81-2.69 23.96-5.47 35.7-5.47 24.06-22.83 42.18-39.82 58.98-18.72 19.17-35.89 42.87-36.98 70.58 1.82 2.31-1.99 6.01-4.1 3.69-1.91-3.45-.88-7.82-.75-11.6 3.77-35.28 30.27-61.27 53.3-85.9 11.43-12.36 19.5-27.93 21.83-44.67 1.93-12.13 2.24-24.73 6.68-36.3 9.65-22.61 34.12-37.27 36.88-63.16 4.36-38.03-10.58-81.96 23.32-110.65 24.58-22.47 56.1-24.61 72.95 7.78 7.12 14.74 12.48 30.39 14.07 46.76 2.66 16.24 5.18 32.48 5.35 48.97 1.44 22.08-.49 46.24 10.44 66.24 6.66 11.62 20.29 15.71 30.59 23.3 15.19 11.63 21.61 30.63 24.4 48.9-.01-.02-.01-.04-.01-.06 3.3 12.81 4.31 28.04 13.58 38.12 4.33 4.07 10.17 5.54 15.86 6.52 14.15 2.89 28.95 10.39 31.57 25.98 4.23 15.55 7.03 31.47 8.8 47.48.8 4.81 3.03 15.54-5.37 13.18z" fill="#3c3c3b"/><path d="M810.09 561.89c-1.03-5.53.51-11.78 4.75-15.57 3.95-.72 1.26 3.39.66 5.17.03-.09.07-.19.1-.28-1.4 3.12-1.14 6.49-.97 9.82.16 2.56-4.13 3.83-4.54.86zm-2.27 32.5c-1.45-1.77-1.15-17.69 2.34-16.98.89.16 1.22 1.11.95 1.89-.71 3.02 2.51 17.7-3.29 15.09zm23.27-19.7c-.16-1.94-.26-3.94.22-5.85-.01.02-.01.04-.01.06.52-1.59.69-4.56 2.97-4.35.9.16 1.39 1.15 1.1 1.99-1.99 2.83.94 7.99-2.28 9.48-.9.24-1.93-.33-2-1.33zm-5.49 46.21c-.66-.51-.8-1.31-.81-2.09 0 .02.01.06.01.08.07-3.64-.92-13.79 4.46-13.44 2.61 1.13.29 3.82.3 5.74-.46 3.15 1.89 11.86-3.96 9.71zm-14.14 17.39c.36-2.9.71-9.16 4.84-8.53 3.15 1.64-.49 5.32.04 7.96.07 2.96-4.81 4.03-4.88.57zm-19.48-21.87c.31-3.1.79-12.31 5.25-11.48 2.22 1.85-1.26 4.65-.82 7.1-.34 2.16.6 5.79-2.36 6.3-1.13.14-2.1-.76-2.07-1.92zm.08-45.26c-2.85-.49-.93-4.38-.79-6.26.59-1.75.39-5.47 3.12-4.94 1.91.99.33 3.64.36 5.3-.58 1.98.17 5.72-2.69 5.9zm22.74-41.5c-4.11-.31 1.26-12.28 4.33-9.85 1.69 1.51-.42 3.18-1.11 4.6-1.23 1.66-.5 5.14-3.22 5.25zm20.89 2.08c-.13-2.77.44-5.48 1.56-8.02.33-.88 1.42-1.49 2.33-1.17 2.21 1.07-.01 3.59-.19 5.24-.61 1.82.53 5-2.04 5.49-.91.12-1.66-.61-1.66-1.54zm16.47 40.42c-.17-3.26-1.87-10.18 2.62-10.9 1.06.19 1.44 1.3 1.15 2.22l.03-.09c-1.58 3.19 2.71 8.59-1.44 10.33-1.08.31-2.23-.38-2.36-1.56zm-2.99 31.68c.36-2.48.06-7.64 3.47-7.68 2.99 1.15-.18 4.95.24 7.24.06 2.26-3.65 3.07-3.71.44zm28.32 138.98c-.08-3.46.22-6.95-.4-10.37-.56-1.54.49-3.37 2.13-3.57 3.81-.52 2.09 10.78 2.44 13.44.08 2.55-4.08 3.48-4.17.5zm-20.75 5.59c.23-3.57-.81-14.51 4.24-14.46 3.51 1.21.1 5.54.49 8.14-.57 2.61 1.12 6.91-2.17 8.02-1.15.3-2.46-.42-2.56-1.7zm14.98-36.98c-.06-3.44-2.45-8.16.49-10.86 1.06-.84 2.66-.81 3.52.26-.03-.04-.06-.07-.08-.11 1.21 2.75.37 6.32 1.17 9.37.49 3.04-4.47 4.88-5.1 1.34zm-3.36 57.32c-.37-2.97-.97-15.24 4.52-10.46-.07 3.12-.44 6.41-.24 9.65.1 2.41-3.89 3.59-4.28.81zm3.3 29.54c.72-3.54-2.09-10.1 2.34-11.55 4.33.02 1.22 8.22 1.74 11.06.06 2.49-4 3.39-4.08.49zm-31.22-14.5c-.02-3.75-1.24-13.69 3.14-14.91.79.14 1.22 1.01.96 1.74-1.38 3.94-.98 8.2-.81 12.3.31 1.97-2.93 3.15-3.29.87zm66.6-28.87c-.58-3.25-2.74-10.53 2.09-11.13 1.06.19 1.62 1.34 1.29 2.34-.73 2.34.12 4.84.46 7.18v-.01c.72 2.29-2.99 4.23-3.84 1.62zm-4.31 45.86c.09-3.25-2.06-9.83 2.11-10.95 3.15.77.49 5.36 1.31 7.7.09 1.63.71 4.02-1.41 4.59-.92.25-1.9-.34-2.01-1.34zM758.68 774.3c-3.5-1.04 1.3-8.2 1.74-10.65.71-1.92 3.71-1.06 2.8.97-1.68 2.35-1.73 9.31-4.54 9.68zm8.77-35.23c-3.91.05-1.14-10.13 2.24-9 2.32.46 1.91 3.1 1.03 4.68-.56 1.75-.87 4.37-3.27 4.32zm17.31-22.06c-.76-3.37-1.8-11.84 3.45-11.3 2.22 1.49-.77 3.64-.21 5.62-.17 2.22 1.85 5.52-.86 6.77-.91.37-2.17-.02-2.38-1.09zm-5.31 38.46c-.05-2.85.44-9.56 4.59-8.48 2.31 1.86-.93 5.32-.19 7.97.09 2.67-4.33 3.64-4.4.51zm-3.17 42.5c.69-3.66-2.06-13.68 1.86-15.1 1.12-.17 1.95.94 1.71 1.99-.26 4.22.64 8.4.46 12.63.08 2.44-3.97 3.33-4.03.48zm-29.07 2.2c-2.89-.88-.67-4.58-.19-6.51.6-1.67 1.06-4.4 3.42-4.05 1.13.21 1.77 1.46 1.39 2.52-1.45 2.48-.89 8.02-4.62 8.04zm-13.14-11.76c-2.73-.87-.5-4.32-.14-6.17.94-2 1.32-6.13 4.39-5.41 3.02 1.69-.61 5.34-1.05 7.68-.58 1.57-.97 4.22-3.2 3.9zm-11.3 45.04c-2.34-2.19 1.11-15.94 5.15-10.92.56 2.18-1.41 4.2-1.43 6.42.31 2.29-.74 6.19-3.72 4.5zm20.24 18.26c.37-3.3 1.69-12.65 6.26-11.78 3.62 1.97-.74 6.14-1.04 8.94-.32 1.96-.26 4.76-2.82 5.07-1.28.15-2.48-.88-2.4-2.23zm48.3-19.24c-.15-2.84-.7-8.89 3.24-9.05 1.11.2 1.64 1.38 1.33 2.41-.61 1.7-.81 3.48-.67 5.28-.01-.09-.01-.19-.01-.28.82 2.52-3.19 4.71-3.89 1.64zm276.01-134.69c-4.97-19.35 1.77-39.6-4.08-58.7.02.04.03.09.05.14-12-26.89-35.74 3.89-38.91-62.42l.03.53c-.02-.33-.03-.66-.05-.99l.03.54c-.05-1.07-.1-2.13-.16-3.2l.03.53c-1.33-14.3.1-34.54-15.88-40.84-22 .16-28.86 25.17-30.61 43.16l.06-.62c-.07 25.41-4.34 46.76-19.37 67.8-4.75 7.8-6.95 16.91-8.27 25.86.61 1.14-.91 2.62-2.01 1.82h-.01c.05.03.09.06.14.09-5.2-18.98 10.46-36.47 16.13-53.91 5.96-15.89 2.99-33.17 5.99-49.57 3.09-14.52 8.11-29.94 21.69-37.85 13.56-7.5 24.41-6.12 33.01 7.4 4.55 7.23 4.7 16.26 5.82 24.51 1.97 15.02-.3 49.31 16.75 55.1 24.5 7.03 26 25.43 24.49 47.77-.88 10.08-.29 20.27 1.52 30.22 1.09 3.73-4.99 6.94-6.39 2.63z" fill="#3c3c3b"/><path d="M999.17 581.98c.29-3.83-.36-7.89.89-11.57.52-1.59 3.09-2.06 3.6-.22-.14 2.02-.35 4.09-.14 6.17-.25 2.46 1.03 6.83-2.27 7.54-1.13.15-2.12-.75-2.08-1.92zm-16.96 26.24c-2.11-3.33.32-8.05 1.3-11.52 1.07-2.94 5.67-1.63 4.29 1.49-2.32 2.8.09 12.28-5.59 10.03zm2.94-43.88c.03-1.81.87-3.42 1.47-5.09-.02.04-.03.09-.05.14.26-2.58 4.15-2.71 3.3.2-1.23 2.07.19 5.93-2.81 6.53-1.03.12-1.97-.72-1.91-1.78zm24.75-7.78c-.56-2.72-2.8-8.69 1.82-8.7 2.47 1.01 1.9 4.94 2.72 7.18.5 2.53-3.7 4.38-4.54 1.52zm2.64 43.55c.04-1.52.01-3.04-.04-4.55 0 .06.01.12.01.19-.04-2.84-1.38-8.68 3.01-8.57.65.11 1.19.55 1.46 1.15.04 3.77.13 7.75-.27 11.59-.18 2.39-4.17 2.97-4.17.19zm-15.44 18.87c.14-2.81-.19-8.96 4.02-8.37 2.81 1.44-.24 4.87.24 7.28 0-.01 0-.02.01-.04.48 2.81-4.01 4.52-4.27 1.13zm-23.38 38.32c.51-3.14.17-11.01 4.62-10.76 2.57 1.28-.14 4.24-.28 6.22-.76 2.01.14 5.62-2.56 6.18-.95.13-1.83-.64-1.78-1.64zm36.12 18.88c-3.2-2.62-2.59-8.47-1.59-12.15 1.04-3.78 6.79-2.67 5.17 1.34-1.76 3.31 2.75 11.4-3.58 10.81zm18.14 4.18c-1.66-12.31 8.62-15.55 6.8-7.99.01-.01.01-.01.01-.02-1.29 2.11-1.54 4.56-1.41 6.98.18 3.05-4.87 4.55-5.4 1.03z" fill="#3c3c3b"/><path d="M344.8 288.5c-4.95-1.11-2.4-8.18-3.55-11.83-4.72-4.71 28.34-6.96 31.75-8.25 29.92-4.44 59.89-8.47 89.95-11.86-.04.01-.09.01-.14.01 1.13-.12 2.26-.25 3.39-.38-.13.01-.26.03-.39.04 11.35-1.24 22.72-2.3 34.07-3.38-.21-1.62.04-4.13 2.21-4.02 29.02-4.95 58.82-4.8 88.11-7.7.5-3.92 6-3.85 9.06-4.21 1.64.19 3.89-.39 4.84 1.34 2.39 6.95 2.24 14.52 2.67 21.78-.37 5.2 2.46 12.68-1.18 16.84-2.99 2.14-9.78 5.77-10.01-.54-.25-.11-.49-.27-.69-.46-22.61-.16-45.19.56-67.8 1.2-4.55-1.06-27.95 3.74-26.4-2.32-31.64.65-63.07 4.25-94.56 7.12.12-.01.24-.02.36-.04-10.67 1.16-21.28 2.89-31.97 3.82l.36-.04c-9.98 1.2-20.01 2.72-30.08 2.88zm161.78-14.02v.01c.27-.01.55-.03.82-.06-.27.02-.54.03-.82.05zm90.47-31.52c.08.3.15.6.22.89-.01-.32-.02-.64-.04-.96-.05.03-.12.05-.18.07zM348.4 1078.39c-2.42-37.63-2.86-75.62-5.92-113.35-18.89 3.04-36.8 6.64-56.16 8.14-16.32.07-33.19 2.49-49.26 2.46.66 17.03.8 33.91 2.21 51.1.77 9.63 1.09 21.71 1.66 32.45.49 7.45 2.68 19.72-7.68 20.55-8.44-.41-6.94-10.18-7.58-16.21-.78-11.08-.93-20.91-1.9-31.61-3.19-48.65-4.03-98.07-7.8-147.69-1.12-25.19-4.22-50.3-5.65-75.42-1.57-29.32-4.54-58.63-6.03-87.91-2.82-36.42-1.73-72.97-2.96-109.53-1.32-30.83-4.38-61.75-5.2-92.19-1.67-24.51-.99-52.52-2.24-77.92-3.35-44.09-7.53-87.14-9.35-131.63 2.12-.87 4.18-1.9 6.22-2.94-.11.06-.22.11-.32.17 2.95-1.54 5.95-2.99 9.03-4.25 1.54 38.6 4.3 77.15 7.58 115.63 2.97 28.63 2.17 60.61 3.55 90.06 1.32 31.21 3.79 61.53 5.75 92.92 1.13 33.97.89 68.04 3.03 102.07 26.21-3.79 52.88 1.96 78.89-2.46.47 5.35.57 10.71.9 16.06-23.4.84-46.83 1.84-70.2 2.77-2.2 1.85-5.29 2.54-8.07 3.24 3.05 39.68 5.48 78.54 8.33 117.86 34.47-8.63 71.01-5.75 105.94-11.5-1.51-36 1.72-75.78 1.56-111.47.28-26.38-1.93-58.08-1.79-83.2-1.83-55.94.11-112.53-3.17-168.25-1.49-17.58-1.57-35.51-1.6-53.16-.22-24.59-3.29-53.39-4.44-78.79 5.18-1.59 10.43-2.89 15.58-4.59 2.34 37.51 5.17 75.14 4.96 112.38 4.21 52.33 3.3 105.17 4.44 158.35 1.55 62.65 4.05 122.62 1.17 185.18-1.06 73.07 6.17 143.91 10.55 217.14.71 22.68 2.04 44.99 2.52 67.71 2.01 9.94-11.08 20.25-16.55 7.83zM230.85 858.65c2.07 34.97 4.32 70.09 5.69 105.12 34.53-7.39 70.49-4.72 104.67-14.4-3.74-35.52-4.9-70.48-5.85-106.19-13.58 1.59-27.26 2.22-40.9 2.88l.07-.01c-21.63.37-43.05 3.12-64.61 2.09.35 3.54.68 7 .93 10.51z" fill="#ff6b08"/><path d="M310.99 706.82c-.2-2.54-.36-5.07-.53-7.61 14.58-3.64 13.01 15.21 1.31 16.96-.29-3.12-.54-6.24-.78-9.35zm7.79-486.78c-2.92-37.99-4.32-74.52-7.51-111.48-1.31-26.81-6.22-54.46-1.29-80.95 12.14-14.07 11.66 30.22 13.18 35.8 6.74 54.2 8.08 106.52 12.22 160.99-5.19 2.27-11.13 2.86-15.85 6.18-.22-3.31-.47-6.81-.75-10.54zm-136.07 49.38c-.17-35-3.79-68.8-5.87-103.49-.64-39.65-2.62-79.26-5.4-118.77-1.23-16.19 23.15-16.14 15.94.67 5.2 37.15 2.89 74.42 3.54 111.62 2.18 35.73 6.61 72.01 6.62 107.69-5.44.68-10.21 3.51-14.8 6.32l-.03-4.04zm33.74 338.71c-5.82.42-11.16-5.47-5.66-10.04 6.62-3.64 14.92-3.36 22.23-4.97 17.19-3.01 34.59-4.25 51.81-6.9.53 5.55 1.42 11.13 3.37 16.38-23.73 3.39-47.83 4.79-71.75 5.53zm82.87-7.93c-.07-.47-.16-.95-.24-1.42.03.18.06.36.09.55-.05-.3-.1-.6-.14-.91.03.18.06.36.09.55-.79-5-2.07-9.95-4.36-14.48 7.54-.76 15.17-1.75 22.71-2.04 8.55 1.59 6.88 14.13-.35 16.49-5.6 1.85-11.63 1.58-17.46 2.16l-.34-.9zm-93.03-118.57c-3.29.37-5.88-2.65-4.89-5.84 3.15-7.38 14.26-6.45 20.95-8.31.23 1.52.18 3.05.28 4.57v-.01c.21 2.82.62 5.62 1.26 8.38-5.87.37-11.74.86-17.6 1.21zm24.92-15.77c7.77-.03 7.27 11.1.91 13.21-.31-4.4-.62-8.81-.91-13.21zm-3.09.45c.04-.01.09-.02.12-.02.01.21.02.4.02.6-.03-.19-.09-.38-.14-.58zm-30.35-123.79c-9.03-15.85 44.08-16.21 53.11-18.39.35 4.88 1.37 9.69 1.62 14.58-10.26 1.4-20.6 2.1-30.91 3.07-7.43.13-17.3 5.34-23.82.74zm64.31-7.19c.01-.52-.12-1.03-.22-1.54.02.11.04.21.07.32-.75-3.74-1.58-7.47-2.29-11.23 10.15-2.01 10.19 12.74 1.48 14.51.58-.5.96-1.23.96-2.06z" fill="#3c3c3b"/><path d="M260.13 325.42c.02.09.04.17.05.26-.02-.08-.03-.17-.05-.26zm-42.8-100.43c-8.86-1.21-18.65-.95-26.93-4.2-3.25-2.79-.32-7.87 3.53-8.03 9.24-1.55 18.6-.16 27.89-.47 19.72-1.81 39.53-2.49 59.21-4.56 11.31-1.99 22.66-3.39 34.09-4.33 6.37-3.4 13.72 1.44 10.54 8.71-4.27 8.48-16.09 5.41-23.9 6.88-27.88 4.55-56.22 5.57-84.43 6z" fill="#ff6b08"/><path d="M193.84 224.81c-3.22.02-5.25-3.63-3.11-6.2 3.7-3.1 9.65-2.39 14.21-3.73 23.37-3.77 46.94-7.15 70.65-7.05 14.42-.54 28.41-4.89 42.89-5.01 7.51.41 5.53 11.68-1.07 12.08-5.82.45-11.68.35-17.47 1.23-16.99 3.8-34.28 2.46-51.5 3.7-18.27.71-36.36 4.2-54.6 4.98zm1.71-119.67c-4.65.67-11.46-3.42-7-8.23h-.01c3.15-2.92 7.9-2.69 11.88-3.48 9.86-1.37 19.8-2.07 29.7-3.15 26.79-3.11 53.5-6.39 80.48-7.25 12.02-4.39 13.86 13.01 2.69 14.71-4.04.13-8.07.14-12.11.4l.4-.02c-35.41.79-70.56 6.37-106.03 7.02z" fill="#ff6b08"/><path d="M320.4 293.75c-13-.96-6.65-12.31 3.09-9.96 5.21 1.43 3.81 11.03-3.09 9.96zm1.03-2.77c.49-.04.98-.17 1.44-.35-2.12-.42-3.09-3.08-2.16-4.92-.45.14-.89.32-1.32.49.01-.01.02-.01.02-.01-1.45.56-3.02 1.17-3.95 2.49 1.19 2.08 3.81 2.37 5.97 2.3z" fill="#3c3c3b"/><path d="M321.6 296.29c-.41-.77.76-.52 1.15-.78l-.06.02c.8-.33 1.51-.84 2.12-1.44l-.02.02.17-.17-.06.06c.45-.45.89-.92 1.19-1.49.69-.98 1.8.36.95 1.04-1.53 1.11-3.33 3.46-5.44 2.74zm-6.65 10.92c-1.7-.72.02-2.96.24-4.19-.13-1.01.99-2.14 1.97-1.58.84.53.82 1.73.14 2.4-.77 1.04-.82 3.31-2.35 3.37zm5.17-1.7c-1.61-.68.39-2.89.71-3.97-.11-.36.39-.65.62-.32.24.58-.15 1.24-.27 1.81-.37.77.05 2.32-1.06 2.48zm4.55-1.4c-1.44.09.01-3.71.56-4.03.99-.16.46 4.31-.56 4.03zm-28.91 549.4c-9.01-4.88 15.54-17.93 18.78-22.12-5.75-25.65-2.92-52.25-4.77-78.32-2.11-62.47-3.5-125.9-22.02-186.08-27.29 8.78-56.13 12.73-82.53 24.28.12-.04.23-.09.35-.14-9.12 4.55-18.73 8.67-27.23 14.24-3.37 10.16-.66 21.52 2.47 31.44l-.09-.27c5.92 16.3 14.62 31.33 22.26 46.84 6.34 13.23 12.31 26.69 20.6 38.83 1.12 3.57-3.07 6.18-4.65 9-4.6 5.42-8.57-4.07-12.17-6.39-4.64 11.52-14.11 21.37-26 25.33.1-.04.21-.08.31-.12-11.86 6.28-15.16 2.68-6.82-8.02 3.38-4.97 5.9-10.41 8.85-15.62-10.68-20.65-21.09-41.42-31.59-62.16-7.28-11.97-12.49-24.97-18.17-37.74-3.62-8.35-7.6-16.57-9.23-25.6-13.82-42.78 65.63-55.83 93.34-68.54.04.02.09.04.14.06-.03-.01-.07-.02-.1-.04.04.01.08.03.12.04-.04 1 .84 1.81 1.77 2.02 18.62 8.22 39.95 9.39 60.11 10.53 5.05.46 11.09.82 15.71-1.15a329.69 329.69 0 0 0 14.91-17.84c1.33 6.98 1.36 14.81 4.5 21.17 11.29 3.29 24.09 2.77 35.78 1.66 2.33 32.71-1.02 65.68-1.63 98.45-1.14 29.16-.92 58.41-1.24 87.59.72 17.2.54 34.41 1.42 51.6.59 19.1 2.86 38.18 1.62 57.31-.52 5.65-8.24 3.92-12.2 4.79-3.92-1.21-3.32-6.84-4.32-10.11-9.58 10.23-24.7 14.23-38.28 15.08zM216.6 727.1c.01-.01.02-.03.03-.04-.27-.26-.52-.54-.76-.83.24.3.49.59.73.87zm42.91-367.76c-.06-.17-.09-.35-.09-.52.78-.12 1.56-.27 2.34-.39-.41.76-1.62 2.19-2.25.91zm61.33-4.79c-.39-.35-.79-.7-1.2-1.04 2.01-.29 4.02-.43 6.05-.44.21.34.4.68.59 1.02-.66.16-1.34.29-2.01.39-1.03.14-2.07.22-3.1.37-.11-.09-.21-.19-.33-.3zm3.38-.05zm.02 0c.01-.01.01-.01 0 0h-.02.02zm-147.27-47.07c-.7-1.2-1.73-2.16-2.65-3.19 3.95-2.07 8-3.93 12.16-5.51l-.32.13c5.03-2.08 10.68-2.54 15.52-5.08-.09-.01-.18-.02-.27-.04l.21.03c-2.12-.52-4.19-.02-6.27.25-4.69-2.46 3.24-5.14 5.1-6.54-2.73-.52-5.27 1.39-7.87 1.12-3.18-2.62 2.09-4.26 4.12-4.94-.01.01-.03.01-.03.01.06-.02.11-.04.17-.07-.02.01-.04.01-.06.02 1.14-.55 2.57-.92 3.31-2-.19-.23-.45-.39-.71-.53.06.03.11.06.17.08-2.94-.74-6 1.28-8.95 1.49-5.49-3.25 5.6-5.35 6.96-7.77-11.57-.03-20.15 9.62-29.29 15.5-1.25.92-2.47 1.89-3.64 2.91-.72-.82-1.43-1.66-2.26-2.38 7.56-6.82 16.08-12.9 25.2-17.42 4.25-2.36 18.22-4.04 11.17 4.22 3.37-.24 5.53 3.93 2.84 6.27 3.94.04 3.15 4.72.42 6.12 7.22 1.46 1.42 8.2-3.01 9.15-7.28 3-14.6 5.89-21.68 9.4 0-.42-.11-.87-.34-1.23zm284.28-33.71c-.72-6.26-4.02-14.55.97-19.7 1.95-1.42 4.73-1.19 5.86 1.11.73-3.21 5.55-4.4 6.5-.71 1.75-2.96 5.09-5.21 6.04-.36 3.61-5.74 7.77-1.24 6.94 3.92-1.35 7.53-.72 15.36-.14 22.94-1.27-.26-2.58-.24-3.87-.18-1.56-8.64-.22-17.46 1.01-25.86.02.07.03.13.05.2-.08-.41-.22-.86-.64-1.03-2.25 1.22-2.64 3.9-2.94 6.21-3.32 4.45-1.94-5.06-2.99-6.46-1.79 1.66-3.08 4.05-2.53 6.53.46 1.44-1.14 3.46-2.4 1.96-1.11-2.09.46-5.95-1.62-7.35.02 0 .04-.01.07-.01h-.01c.04 0 .08-.01.12-.01-3.67.38-.02 13.28-4.84 9.63-.81-1.76.45-8.55-2.69-7.45-2.21 8.44 2.05 17.38 2.28 26-1.12.11-2.3.06-3.39.36-.73-3.23-1.26-6.48-1.78-9.74zm-125.51 29.41c-.01 0-.01 0 0 0-.01 0-.01 0 0 0zm.09-.03c-.01.01-.03.01-.04.01.01 0 .02-.01.04-.01z" fill="#3c3c3b"/><path d="M333.04 549.54c-24.73-1.27-18.42-.3-22.93-23.55a317.08 317.08 0 0 1-14.91 17.84c-4.62 1.97-10.67 1.61-15.71 1.15-20.16-1.14-41.49-2.32-60.11-10.53-2.6-.65-1.91-3.5-.19-4.75 2.31-3.05 4-6.38 5.2-10.01 6.02-14.48 6.13-27.61 4.72-42.9-1.58-18.57-6.07-36.95-10.06-55.14-33.37-1.22-84.8 3.14-111.57-19.62-21.93-23.29-12.94-52.73 6.7-74.1 13.09-14.95 27.86-29.24 46.08-37.58h-.01c4.01-.06 6.42 6.85 9.58 9.15 2.21 3.39 11.18 8.18 5.52 12.08-6.43 7.09-14.96 12.46-21.81 19.28l.08-.09c-66.04 56.63 37.92 36.92 69.32 34.12 18.36-1.69 36.38-4.2 54.78-6.48 11.03.09 21.44-1.29 32.33-1.42l-.07.02c5.74-.64 11.79-.03 17.32-1.67 19.98-3.89 40.86-4.18 60.98-1.79l-.24-.01c18.72 1.42 37.41 3.33 56.18 3.78 8.71-.41 17.89 2.37 26.36-.01l.03-.09h-.01c.86-9.7-.61-17.65-1.79-26.82-1.8-13.48-4.07-26.81-9.34-39.45-2.77-6.53 4.87-8.27 9.8-8.1 5.93-.34 17.29-4.85 21.7-.24 2.06-.12 2.33 7.14 3.77 9.07 8.2 20.35 10.87 41.48 14.56 63.05l-.02-.11c2.29 16.32 2.06 39.33-16.59 45.61-15.59 6.08-32.6 7.9-49.16 9.27h.01c-.06 0-1.03.07-1.12.08l.11-.01c-14.01 2.06-27.81 1.66-41.93 1.44-10.48-.17-21.2.58-31.83-.11-.68 21.2-9.9 41.99-5.35 63.12 3.07 14.52 7.36 28.23 12.28 42.19 2.8 6.52 3.12 14.31 5.54 20.83 5.64 8.47-22.96 10.96-27.86 11.42-.83.57-1.96.74-2.89.32-5.72 1.01-11.63.76-17.45.76zm-15.38-6.69h.04c-.06-.12-.11-.24-.14-.35.04.11.07.23.1.35zM171.22 414.97l.04-.01c-.72-.01-1.42-.01-2.11-.02l2.07.03zm171.83-58.01c.42-.03.86-.07 1.28-.1-.43.04-.86.05-1.28.1z" fill="#ff6b08"/><path d="M244.21 365.1c-3.11-4.92 12.36-5.09 15.2-6.29.78-.12 1.56-.27 2.34-.39 1.54-.22 3.11-.28 4.65-.47-.01 0-.02 0-.03.01 17.78-1.97 35.62-1.51 53.26-4.43 9.62-1.15 19.31-.67 28.96-.37 2.05.27 4.95-.84 6.38 1.02.7 1.31-.01 2.85-1.34 3.38-13.59.69-27.33-.14-40.9 1.52l.26-.03c-19.98 2.45-40.29 1.38-60.23 4.69h.01c-.87.12-1.75.24-2.63.35h.01c-1.98.04-4.1 1.62-5.94 1.01z" fill="#ff6b08"/><path d="M259.68 357.45c.29-3.81 2.14-7.1 6.01-8.22-.32-3.25-.26-6.53-.27-9.79-6.47 3.07-11.36-3.46-6.17-8.49-5.12.93-6.32-5.19-1.92-7.24-4.03-.82-4.7-6.23-.77-7.77 2.22-1.14 4.79-1.08 7.11-1.89-2.89-17.11-.42-36.08 9.7-50.52l-.02.02c7.68-10.92 21.2-15.59 34.17-13.76h-.01c11.15 1.99 13.37-4.74 14.76-14.12 1.59-6.8 12.26-8.98 12.44-.31 5.9-4.34 12.11.12 8.52 6.88 3.22-1.1 7.04.12 7.12 3.99 0-.06-.01-.13-.02-.19l.06.48c-.01-.07-.01-.13-.02-.2.32 4.07-2.31 7.68-5.14 10.34l.06-.06c-4.17 4.17-9.4 7.19-15.04 8.87 2.56 7.08 1.86 14.89 4.07 22.03 1.37 4.85 6.46 6.01 10.23 8.38 1.75 2.59-2.02 4.74-4.13 5.42h.01c-1.52.69-3.1 1.25-4.67 1.82h-.01.01c-.29.11-.57.23-.86.34.47 23.27 10.01 24.21-16.66 29.96.08-.02.17-.04.26-.06-.59.14-1.17.28-1.75.47.2 4.04.17 8.09.59 12.11 3.31 1.56 6.3 4.13 8.38 7.12-2.02.01-4.04.16-6.05.44-7.98-6.36-19.49-2.07-28.86-2.11-8.12 2.07-25.17-1.17-29.03 7.01-.78.11-1.56.27-2.34.39-.03-.44.12-.92.24-1.34zm24.01-59.46c-6.18 1.02-6.78 10.78-2.86 14.61 2.84 1.22.61 5.77.46 8.13-1.63 6.98-5.81 13.41-12.18 16.91-.4 3.49-.53 7.05-.39 10.57 14.89-1.81 30.11-3.4 45.14-3.09.09-4.49-.97-9.36-.08-13.66 5.76-4.08 13.85-3.34 20.19-6.37.42-3.69-4.35-24.02.18-23.78 2.86-1.04 6.7-1.21 8.76-3.58-8.58-2.54-14.23-8.63-14.37-17.86l-.06-.6c.01.07.02.16.02.23l-.13-1.29c-2.89 1.45-5.92 2.76-9.07 3.54.07-.02.16-.04.24-.06-2.94.92-12.26 1.48-8.7-3.75 5.25-2.61 11.2-4.94 17.17-4.05-.26-2.49-.26-5-.81-7.45-9.75 3.76-19.32 8.26-29.21 11.79.03 8.12 1.74 16.12 2.68 24.16 1.76 9.39.33 8.52-8.43 10.56-4.71-2.49-1.79-15.23-8.55-14.96z" fill="#3c3c3b"/><path fill="#fff" d="M218.25 411.71c-2.51-4.27.91-6.13 1.26-3.48.27.69.67 1.32 1.1 1.92.93 1.41-1.5 3.22-2.36 1.56zm151.67-10.9c-1.18-2.11.73-6.1 1.67-8.18 3.08-1.71 1.73 3.51 1.97 5.09-.01-.09-.01-.18-.01-.27.7 2.19-1.43 5.25-3.63 3.36zM310 518.84c-1.97-5.64.44-12.6-.27-18.67.12-2.19-1.84-7.98 2.08-7.18 2.77 5.18 1.5 12.03 1.83 17.82-.05 2.72 1.13 9.97-3.64 8.03zm23.65-163.14c-1.94.13-6.3-1.49-2.84-3.18v-.01c2.31.24 4.64.29 6.96-.07.86-.09 1.56.57 1.54 1.44-.27 2.69-3.79 1.76-5.66 1.82zm165.3-89.94c-1.42-1.39-.37-3.97-.62-5.8-.22-.31-.12-.73.06-1.05 1.27-2.52 2.36.93 2.33 2.25.31 1.68 1.18 5.41-1.77 4.6zm93.78 5.02c-.71-5.41-.03-10.78-.19-16.19.52-2.42-2.16-11.28 1.89-10.53v-.01c2.95 6.68 1.19 14.91 1.89 22.12v-.08c.01.09.01.18.01.27v-.04c-.11 1.91.57 5.25-1.94 5.76-.79.1-1.6-.46-1.66-1.3zm-307.31-7.4c-2.44-1.56 2.66-4.19 3.94-4.95 1.73-.71 2.39 1.87.9 2.58-1.63.68-3.06 2.29-4.84 2.37zm4.16 4.81c-.29-.22-.4-.56-.39-.9v.01c.01-.17.04-.35.11-.51v.01c1.23-1.87 3.19-3.43 4.94-4.82 1.62-.88 2.46 1.52 1 2.29.01-.01.02-.01.03-.02-.94.66-1.79 1.46-2.68 2.19l.04-.04c-.04.04-.09.08-.14.12.01-.01.02-.02.04-.03-.96.58-1.57 2.58-2.95 1.7zm5.38 2.09c-2.6-2.02 2.39-4.37 3.81-5.55.52-.32 1.26-.22 1.61.31.84 1.97-2.16 2.84-3.18 4.07.01 0 .01-.01.01-.01-.21.19-.43.37-.61.59.01-.01.02-.02.03-.04-.02.02-.04.05-.07.07.06-.07.12-.14.17-.21-.01.01-.01.02-.02.03l.09-.18c-.34.66-1.09 1.19-1.84.92zM150.38 604.53c-3.01-1.23-7-2.28-8.51-5.42-.62-1.87 2.67-3.3 3.02-1.02 1.57 2.49 8.25 2.15 7.53 5.42-.33.74-1.23 1.31-2.04 1.02zm6.02-6.8c-1.37-1.76-6.83-6.08-5.57-8.18 1.79-.61 2.89 3.52 4.47 4.4.69 1.17 3.5 2.22 2.36 3.73-.35.35-.9.41-1.26.05zm143.63-32.3c-1.49-.11-.96-2.37.35-2.27 1.77.54 5.32-1.92 6.03.35-.73 2.17-4.45 1.58-6.38 1.92zm6.79 10.26c-1.62-.51-5.74.54-5.49-2 1.02-2.23 4.15-.27 6.03-.47 1.49.29.8 2.59-.54 2.47z"/><path d="M524.6 127.72h-26.41l-39.04-68.55v68.55h-26.56V17.56h26.56l38.96 68.55V17.56h26.48v110.16zm110.09-52.81c0 10.75-1.99 20.25-5.98 28.53-3.99 8.27-9.65 14.64-16.99 19.1-7.34 4.47-15.7 6.7-25.08 6.7-9.38 0-17.7-2.16-24.97-6.47s-12.93-10.48-16.99-18.5c-4.06-8.02-6.19-17.22-6.39-27.62v-6.2c0-10.8 1.98-20.32 5.94-28.56s9.63-14.61 17.02-19.1 15.8-6.73 25.23-6.73c9.33 0 17.65 2.22 24.97 6.66s13 10.76 17.06 18.95 6.12 17.59 6.17 28.18l.01 5.06zm-27.02-4.61c0-10.95-1.83-19.25-5.49-24.93-3.65-5.67-8.89-8.52-15.7-8.52-13.32 0-20.35 9.99-21.11 29.96l-.08 8.1c0 10.8 1.79 19.09 5.37 24.9 3.58 5.8 8.9 8.7 15.96 8.7 6.71 0 11.88-2.85 15.51-8.55 3.63-5.7 5.47-13.89 5.52-24.59l.02-5.07zm107.59 57.42h-26.48V17.56h26.48v110.16zm102.75-89.66h-33.07v89.66h-26.56V38.06h-32.46v-20.5H818l.01 20.5zm79.53 42.9h-41.76v26.33h49.34v20.43h-75.89V17.56h76.04v20.5h-49.49v23.23h41.76v19.67zm53.27-63.4L975.4 94.2l24.51-76.65h34.95v110.17h-26.63V102l2.57-52.66-26.63 78.39h-17.55l-26.71-78.46 2.57 52.74v25.73h-26.56V17.56h34.89zm157.76 80.88c0-3.89-1.37-6.91-4.12-9.08s-7.58-4.41-14.49-6.73c-6.91-2.32-12.56-4.57-16.95-6.73-14.28-7.01-21.42-16.65-21.42-28.91 0-6.1 1.78-11.49 5.34-16.16 3.55-4.67 8.59-8.3 15.09-10.9 6.51-2.6 13.82-3.9 21.94-3.9 7.92 0 15.02 1.41 21.3 4.24 6.28 2.82 11.16 6.85 14.64 12.07 3.49 5.22 5.22 11.19 5.22 17.89h-26.48c0-4.49-1.37-7.97-4.12-10.44-2.75-2.47-6.47-3.7-11.16-3.7-4.74 0-8.48 1.05-11.24 3.14-2.75 2.09-4.12 4.75-4.12 7.98 0 2.82 1.51 5.39 4.54 7.68 3.02 2.29 8.35 4.67 15.96 7.11 7.62 2.45 13.87 5.09 18.77 7.91 11.9 6.86 17.85 16.32 17.85 28.38 0 9.63-3.63 17.2-10.9 22.7-7.27 5.5-17.22 8.25-29.89 8.25-8.93 0-17.01-1.6-24.25-4.8s-12.69-7.59-16.34-13.16c-3.66-5.57-5.49-11.99-5.49-19.25h26.63c0 5.9 1.52 10.25 4.58 13.05 3.05 2.8 8.01 4.2 14.87 4.2 4.39 0 7.86-.94 10.4-2.84 2.56-1.91 3.84-4.57 3.84-8z" fill="#ff6b08"/><path d="M441.22 227.15h-8.52v-64.6h8.52v64.6zm65.21 0h-8.57l-32.52-49.78v49.78h-8.57v-64.6h8.57l32.61 50v-50h8.47v64.6zm57.32-32.16 16.86-32.43h9.67l-22.27 40.51v24.09h-8.52v-24.09l-22.27-40.51h9.76l16.77 32.43zm83.28 1.95c0 6.33-1.06 11.85-3.19 16.57-2.13 4.72-5.15 8.32-9.05 10.8-3.9 2.49-8.46 3.73-13.66 3.73-5.09 0-9.6-1.25-13.53-3.75-3.94-2.5-6.99-6.06-9.16-10.69s-3.29-9.99-3.35-16.08v-4.66c0-6.21 1.08-11.7 3.24-16.46 2.16-4.76 5.21-8.41 9.16-10.93 3.95-2.52 8.47-3.79 13.56-3.79 5.17 0 9.74 1.25 13.69 3.75s6.98 6.12 9.11 10.87c2.13 4.75 3.19 10.27 3.19 16.57v4.07h-.01zm-8.47-4.17c0-7.66-1.54-13.54-4.62-17.64-3.07-4.1-7.38-6.15-12.91-6.15-5.39 0-9.62 2.05-12.71 6.15s-4.68 9.78-4.77 17.06v4.75c0 7.42 1.56 13.26 4.68 17.51 3.12 4.24 7.42 6.37 12.89 6.37 5.5 0 9.76-2.01 12.78-6.01 3.02-4 4.57-9.75 4.66-17.24v-4.8zm66.72-30.21v43.93c-.03 6.09-1.94 11.08-5.75 14.95-3.8 3.87-8.95 6.05-15.46 6.52l-2.26.09c-7.07 0-12.7-1.91-16.91-5.72-4.2-3.82-6.33-9.06-6.39-15.75v-44.01h8.43v43.74c0 4.67 1.29 8.3 3.86 10.89s6.24 3.88 11 3.88c4.82 0 8.51-1.29 11.07-3.86 2.56-2.57 3.84-6.2 3.84-10.87v-43.79h8.57zm37.13 38.46h-15.17v26.13h-8.57v-64.6h21.38c7.28 0 12.88 1.66 16.79 4.97 3.92 3.31 5.88 8.13 5.88 14.46 0 4.02-1.09 7.53-3.26 10.51-2.17 2.99-5.2 5.22-9.07 6.7l15.17 27.42v.53h-9.14l-14.01-26.12zm-15.17-6.96h13.09c4.23 0 7.59-1.09 10.1-3.29s3.75-5.13 3.75-8.8c0-4-1.19-7.07-3.57-9.2-2.38-2.14-5.82-3.22-10.31-3.24h-13.04v24.53h-.02zm78.49 26.13h30.61v6.97h-39.18v-64.6h8.57v57.63zm49.46 6.96h-8.52v-64.6h8.52v64.6zm15.58 0v-64.6h21.12c7.01 0 12.28 1.45 15.82 4.35 3.54 2.9 5.3 7.18 5.3 12.86 0 3.02-.86 5.69-2.57 8.01s-4.05 4.12-7.01 5.39c3.49.97 6.25 2.83 8.27 5.57 2.02 2.74 3.04 6 3.04 9.78 0 5.8-1.88 10.35-5.64 13.66s-9.06 4.97-15.92 4.97l-22.41.01zm8.51-37.04h12.86c3.73 0 6.7-.93 8.94-2.8 2.23-1.87 3.35-4.4 3.35-7.6 0-3.55-1.04-6.14-3.1-7.76-2.07-1.62-5.22-2.42-9.45-2.42h-12.6v20.58zm0 6.83v23.25h14.06c3.96 0 7.09-1.02 9.38-3.09 2.29-2.06 3.44-4.89 3.44-8.5 0-7.78-4.23-11.67-12.69-11.67l-14.19.01zm71.74 4.08h-15.17v26.13h-8.57v-64.6h21.38c7.28 0 12.88 1.66 16.79 4.97 3.92 3.31 5.88 8.13 5.88 14.46 0 4.02-1.09 7.53-3.26 10.51-2.17 2.99-5.2 5.22-9.07 6.7l15.17 27.42v.53h-9.14l-14.01-26.12zm-15.17-6.96h13.09c4.23 0 7.59-1.09 10.1-3.29s3.75-5.13 3.75-8.8c0-4-1.19-7.07-3.57-9.2s-5.82-3.22-10.31-3.24h-13.04v24.53h-.02zm83.1 16.19h-27.06l-6.08 16.91h-8.78l24.66-64.6h7.45l24.71 64.6h-8.74l-6.16-16.91zm-24.49-6.97h21.96l-11-30.21-10.96 30.21zm71.78-2.26h-15.17v26.13h-8.57v-64.6h21.38c7.28 0 12.88 1.66 16.79 4.97 3.92 3.31 5.88 8.13 5.88 14.46 0 4.02-1.09 7.53-3.26 10.51-2.17 2.99-5.2 5.22-9.07 6.7l15.17 27.42v.53h-9.14l-14.01-26.12zm-15.18-6.96h13.09c4.23 0 7.59-1.09 10.1-3.29 2.51-2.19 3.75-5.13 3.75-8.8 0-4-1.19-7.07-3.57-9.2s-5.82-3.22-10.31-3.24h-13.04v24.53h-.02zm65 .93 16.86-32.43h9.67l-22.27 40.51v24.09h-8.52v-24.09l-22.27-40.51h9.76l16.77 32.43zm-585.24 899.29-5.83-1.74.89-2.91 5.83 2.16-.17-6.63h2.96l-.19 6.73 5.74-2.12.89 2.93-5.93 1.76 3.82 5.23-2.39 1.81-3.59-5.56-3.47 5.42-2.41-1.76 3.85-5.32zm33.71-9.12v19.11c-.01 2.65-.84 4.82-2.5 6.5-1.66 1.69-3.9 2.63-6.73 2.84l-.99.04c-3.07 0-5.53-.83-7.35-2.49-1.83-1.66-2.76-3.94-2.78-6.85v-19.15h3.67v19.04c0 2.03.56 3.61 1.68 4.74 1.12 1.12 2.72 1.69 4.79 1.69 2.1 0 3.7-.56 4.82-1.68 1.11-1.12 1.67-2.7 1.67-4.73v-19.05l3.72-.01zm14.13 15.57c-3.18-.91-5.49-2.04-6.94-3.37-1.45-1.33-2.17-2.97-2.17-4.94 0-2.21.89-4.04 2.66-5.49 1.77-1.45 4.07-2.17 6.9-2.17 1.93 0 3.65.37 5.17 1.12 1.51.75 2.68 1.77 3.51 3.09s1.24 2.75 1.24 4.3h-3.72c0-1.71-.54-3.04-1.62-4.02-1.08-.97-2.61-1.46-4.57-1.46-1.83 0-3.25.41-4.27 1.21-1.02.81-1.54 1.92-1.54 3.35 0 1.15.49 2.12 1.46 2.91s2.62 1.52 4.96 2.17c2.34.66 4.16 1.38 5.48 2.17 1.32.79 2.3 1.72 2.94 2.77.64 1.06.96 2.3.96 3.72 0 2.28-.89 4.1-2.66 5.47s-4.15 2.06-7.12 2.06c-1.93 0-3.74-.37-5.4-1.11-1.67-.74-2.96-1.76-3.87-3.04-.91-1.29-1.36-2.75-1.36-4.39h3.72c0 1.7.62 3.04 1.88 4.02 1.26.99 2.93 1.47 5.03 1.47 1.96 0 3.45-.4 4.5-1.2 1.04-.8 1.56-1.89 1.56-3.26s-.48-2.44-1.45-3.19c-.99-.71-2.74-1.45-5.28-2.19zm31.06-.46h-12.18v9.96h14.15v3.03h-17.85v-28.11h17.67v3.03h-13.96v9.05h12.18l-.01 3.04zm16.37 12.99v-28.11h9.19c3.05 0 5.34.63 6.88 1.89 1.54 1.26 2.31 3.13 2.31 5.6 0 1.31-.37 2.47-1.12 3.49-.75 1.01-1.76 1.79-3.05 2.34 1.52.42 2.72 1.23 3.6 2.42.88 1.19 1.32 2.61 1.32 4.25 0 2.52-.82 4.5-2.45 5.95-1.64 1.44-3.95 2.16-6.93 2.16h-9.75v.01zm3.7-16.11h5.6c1.62 0 2.92-.41 3.89-1.22.97-.81 1.46-1.92 1.46-3.31 0-1.55-.45-2.67-1.35-3.37s-2.27-1.06-4.11-1.06h-5.49v8.96zm0 2.97v10.11h6.12c1.72 0 3.09-.45 4.08-1.34 1-.89 1.49-2.12 1.49-3.7 0-3.39-1.84-5.08-5.52-5.08l-6.17.01zm40.7-14.96v19.11c-.01 2.65-.84 4.82-2.5 6.5-1.66 1.69-3.9 2.63-6.73 2.84l-.99.04c-3.07 0-5.53-.83-7.35-2.49-1.82-1.66-2.76-3.94-2.78-6.85v-19.15h3.67v19.04c0 2.03.56 3.61 1.68 4.74 1.12 1.12 2.72 1.69 4.79 1.69 2.1 0 3.7-.56 4.82-1.68 1.11-1.12 1.67-2.7 1.67-4.73v-19.05l3.72-.01zm25.27 3.03h-9.03v25.08h-3.69v-25.08h-9.01v-3.03h21.74l-.01 3.03zm23.9 0h-9.03v25.08h-3.69v-25.08h-9.01v-3.03h21.74l-.01 3.03zm25.25 11.93c0 2.76-.46 5.16-1.39 7.21-.92 2.06-2.24 3.62-3.94 4.7-1.7 1.08-3.68 1.62-5.95 1.62-2.21 0-4.18-.54-5.89-1.63-1.71-1.09-3.04-2.64-3.99-4.65-.94-2.01-1.43-4.35-1.46-7v-2.02c0-2.71.47-5.09 1.41-7.16.94-2.07 2.27-3.66 3.99-4.76 1.72-1.1 3.69-1.65 5.9-1.65 2.26 0 4.24.54 5.95 1.63s3.04 2.66 3.97 4.73c.92 2.07 1.39 4.47 1.39 7.21l.01 1.77zm-3.69-1.82c0-3.33-.67-5.89-2.01-7.67-1.34-1.78-3.21-2.67-5.62-2.67-2.34 0-4.19.89-5.53 2.67-1.34 1.78-2.04 4.25-2.07 7.42v2.07c0 3.23.68 5.77 2.04 7.62 1.36 1.85 3.23 2.77 5.61 2.77 2.39 0 4.25-.87 5.56-2.62 1.31-1.74 1.99-4.24 2.02-7.5v-2.09zm30.85 14.96h-3.72l-14.15-21.66v21.66h-3.72v-28.11h3.72l14.19 21.76v-21.76h3.69v28.11zm14.87-12.53c-3.18-.91-5.49-2.04-6.94-3.37-1.45-1.33-2.17-2.97-2.17-4.94 0-2.21.89-4.04 2.66-5.49 1.77-1.45 4.07-2.17 6.9-2.17 1.93 0 3.65.37 5.17 1.12 1.51.75 2.68 1.77 3.51 3.09s1.24 2.75 1.24 4.3h-3.72c0-1.71-.54-3.04-1.62-4.02s-2.61-1.46-4.57-1.46c-1.83 0-3.25.41-4.27 1.21-1.02.81-1.54 1.92-1.54 3.35 0 1.15.49 2.12 1.46 2.91s2.62 1.52 4.96 2.17c2.34.66 4.16 1.38 5.48 2.17 1.32.79 2.3 1.72 2.94 2.77.64 1.06.96 2.3.96 3.72 0 2.28-.89 4.1-2.66 5.47s-4.15 2.06-7.12 2.06c-1.93 0-3.74-.37-5.4-1.11-1.67-.74-2.96-1.76-3.87-3.04-.91-1.29-1.36-2.75-1.36-4.39h3.72c0 1.7.62 3.04 1.88 4.02 1.26.99 2.93 1.47 5.03 1.47 1.96 0 3.45-.4 4.5-1.2 1.04-.8 1.56-1.89 1.56-3.26s-.48-2.44-1.45-3.19c-.99-.71-2.74-1.45-5.28-2.19zm-241.09 51.41 4.98 7.67h-2.72l-5.69-7.49v-.37l5.69-7.51h2.72l-4.98 7.7zm6.37 0 4.98 7.67h-2.72l-5.7-7.49v-.37l5.7-7.51h2.72l-4.98 7.7zm25.57 3.22h-11.78l-2.64 7.35h-3.82l10.73-28.11h3.24l10.75 28.11h-3.8l-2.68-7.35zm-10.66-3.03h9.56l-4.79-13.14-4.77 13.14zm20.93 10.39v-28.11h7.93c2.44 0 4.61.54 6.48 1.62 1.88 1.08 3.33 2.62 4.35 4.62 1.02 2 1.54 4.29 1.56 6.87v1.79c0 2.65-.51 4.97-1.54 6.97-1.02 1.99-2.49 3.52-4.39 4.6-1.9 1.07-4.11 1.62-6.63 1.64h-7.78zm3.7-25.08v22.05h3.9c2.86 0 5.08-.89 6.67-2.67 1.59-1.78 2.39-4.31 2.39-7.6v-1.64c0-3.19-.75-5.68-2.25-7.45-1.5-1.77-3.62-2.67-6.38-2.69h-4.33zm22.22 25.08v-28.11h7.93c2.44 0 4.61.54 6.48 1.62 1.88 1.08 3.33 2.62 4.35 4.62 1.02 1.99 1.54 4.29 1.56 6.87v1.79c0 2.65-.51 4.97-1.54 6.97-1.02 1.99-2.49 3.52-4.39 4.6-1.9 1.07-4.11 1.62-6.63 1.64h-7.78zm3.71-25.08v22.05h3.9c2.85 0 5.08-.89 6.67-2.67 1.59-1.78 2.39-4.31 2.39-7.6v-1.64c0-3.19-.75-5.68-2.25-7.45-1.5-1.77-3.62-2.67-6.38-2.69h-4.33zm50.65 0h-9.03v25.08h-3.69v-25.08h-9.01v-3.03h21.74l-.01 3.03zm25.25 11.93c0 2.76-.46 5.16-1.39 7.21-.92 2.06-2.24 3.62-3.94 4.7-1.7 1.08-3.68 1.62-5.95 1.62-2.21 0-4.18-.54-5.89-1.63-1.71-1.09-3.04-2.64-3.99-4.65-.94-2.01-1.43-4.35-1.46-7v-2.02c0-2.71.47-5.09 1.41-7.16.94-2.07 2.27-3.66 3.99-4.76 1.72-1.1 3.69-1.65 5.9-1.65 2.26 0 4.24.54 5.95 1.63s3.04 2.66 3.97 4.73c.92 2.07 1.39 4.47 1.39 7.21l.01 1.77zm-3.68-1.81c0-3.33-.67-5.89-2.01-7.67-1.34-1.78-3.21-2.67-5.62-2.67-2.34 0-4.19.89-5.53 2.67s-2.04 4.25-2.07 7.42v2.07c0 3.23.68 5.77 2.04 7.62 1.36 1.85 3.23 2.77 5.61 2.77 2.39 0 4.25-.87 5.56-2.62 1.31-1.74 1.99-4.24 2.02-7.5v-2.09zm25.09 6.1.54 3.7.79-3.34 5.56-19.62h3.13l5.42 19.62.77 3.4.6-3.79 4.36-19.23h3.72l-6.82 28.11h-3.38l-5.79-20.48-.44-2.14-.44 2.14-6 20.48h-3.38l-6.8-28.11h3.7l4.46 19.26zm43.71 1.5h-11.78l-2.64 7.35h-3.82l10.73-28.11h3.24l10.75 28.11h-3.8l-2.68-7.35zm-10.66-3.03h9.56l-4.79-13.14-4.77 13.14zm37.86-14.69h-9.03v25.08h-3.69v-25.08h-9.01v-3.03h21.74l-.01 3.03zm24.3 16.16c-.35 2.97-1.44 5.27-3.29 6.88s-4.3 2.42-7.37 2.42c-3.32 0-5.98-1.19-7.98-3.57s-3-5.57-3-9.56v-2.71c0-2.61.47-4.91 1.4-6.89.93-1.98 2.26-3.5 3.97-4.57 1.71-1.06 3.69-1.59 5.95-1.59 2.99 0 5.38.84 7.18 2.5 1.8 1.67 2.85 3.97 3.15 6.92h-3.72c-.32-2.25-1.02-3.87-2.09-4.88-1.07-1.01-2.58-1.51-4.51-1.51-2.37 0-4.22.87-5.57 2.63-1.34 1.75-2.02 4.24-2.02 7.48v2.72c0 3.05.64 5.48 1.91 7.28 1.27 1.81 3.05 2.71 5.35 2.71 2.06 0 3.64-.47 4.74-1.4 1.1-.93 1.83-2.56 2.19-4.87l3.71.01zm26.66 8.92h-3.72v-12.99h-14.17v12.99h-3.7v-28.11h3.7v12.08h14.17v-12.08h3.72v28.11zm22.48-12.99h-12.18v9.96h14.15v3.03h-17.85v-28.11h17.66v3.03h-13.96v9.05h12.18v3.04zm6.57 12.99v-28.11h7.93c2.44 0 4.61.54 6.48 1.62s3.33 2.62 4.35 4.62c1.02 1.99 1.54 4.29 1.56 6.87v1.79c0 2.65-.51 4.97-1.54 6.97-1.02 1.99-2.49 3.52-4.39 4.6-1.9 1.07-4.11 1.62-6.63 1.64h-7.78zm3.71-25.08v22.05h3.9c2.85 0 5.08-.89 6.67-2.67 1.59-1.78 2.39-4.31 2.39-7.6v-1.64c0-3.19-.75-5.68-2.25-7.45-1.5-1.77-3.62-2.67-6.38-2.69h-4.33zm22.38 27.49h-3.07l11.74-30.52h3.05l-11.72 30.52zm37.6-15.56c0 2.72-.43 5.05-1.29 7.02-.86 1.96-2.07 3.5-3.63 4.6l5.02 3.94-2.53 2.34-5.93-4.71c-.92.23-1.91.35-2.94.35-2.21 0-4.17-.54-5.89-1.63-1.71-1.09-3.04-2.64-3.99-4.65-.94-2.01-1.43-4.35-1.46-7v-2.02c0-2.71.47-5.09 1.41-7.16.94-2.07 2.27-3.66 3.99-4.76 1.72-1.1 3.69-1.65 5.9-1.65 2.27 0 4.25.55 5.97 1.64s3.04 2.67 3.97 4.72c.92 2.06 1.39 4.45 1.39 7.19l.01 1.78zm-3.7-1.81c0-3.3-.66-5.86-1.98-7.65s-3.2-2.69-5.65-2.69c-2.33 0-4.17.89-5.51 2.67-1.34 1.78-2.04 4.25-2.07 7.42v2.07c0 3.22.67 5.75 2.02 7.6 1.34 1.86 3.22 2.78 5.61 2.78s4.25-.87 5.56-2.62c1.31-1.74 1.99-4.24 2.03-7.5l-.01-2.08zm29.2-13.15v19.11c-.01 2.65-.84 4.82-2.5 6.5-1.66 1.69-3.9 2.63-6.73 2.84l-.99.04c-3.07 0-5.53-.83-7.35-2.49-1.82-1.66-2.76-3.94-2.78-6.85v-19.15h3.67v19.04c0 2.03.56 3.61 1.68 4.74 1.12 1.12 2.72 1.69 4.79 1.69 2.1 0 3.7-.56 4.82-1.68 1.11-1.12 1.67-2.7 1.67-4.73v-19.05l3.72-.01zm21.74 15.12h-12.18v9.96h14.15v3.03h-17.85v-28.11h17.67v3.03h-13.96v9.05h12.18l-.01 3.04zm26.37-15.12v19.11c-.01 2.65-.84 4.82-2.5 6.5-1.66 1.69-3.9 2.63-6.73 2.84l-.99.04c-3.07 0-5.53-.83-7.35-2.49-1.82-1.66-2.76-3.94-2.78-6.85v-19.15h3.67v19.04c0 2.03.56 3.61 1.68 4.74 1.12 1.12 2.72 1.69 4.79 1.69 2.1 0 3.7-.56 4.82-1.68 1.11-1.12 1.67-2.7 1.67-4.73v-19.05l3.72-.01zm21.74 15.12h-12.18v9.96h14.15v3.03h-17.85v-28.11h17.67v3.03h-13.96v9.05h12.18l-.01 3.04zm8.03-5.33 5.69 7.51v.37l-5.69 7.51h-2.74l4.98-7.68-4.98-7.7h2.74zm6.74 0 5.7 7.51v.37l-5.7 7.51h-2.74l4.98-7.68-4.98-7.7h2.74z" fill="#3c3c3b"/></symbol></defs></svg>