<svg aria-hidden="true" style="position: absolute; width: 0; height: 0; overflow: hidden;" version="1.1" xmlns="http://www.w3.org/2000/svg" xmlns:xlink="http://www.w3.org/1999/xlink">
<defs>
<symbol id="icon-logo" viewBox="0 0 32 32">
<path d="M26.4 30.667h-20.8c-2.4 0-4.267-1.867-4.267-4.267v-20.8c0-2.4 1.867-4.267 4.267-4.267h20.8c2.4 0 4.267 1.867 4.267 4.267v20.8c0 2.4-1.867 4.267-4.267 4.267zM24 28h2.4c0.933 0 1.6-0.667 1.6-1.6v-2.4h-4v4zM10.667 28h10.667v-10.667h-10.667v10.667zM4 24v2.4c0 0.933 0.667 1.6 1.6 1.6h2.4v-4h-4zM24 21.333h4v-4h-4v4zM4 21.333h4v-4h-4v4zM24 14.667h4v-4h-4v4zM10.667 14.667h10.667v-10.667h-10.667v10.667zM4 14.667h4v-4h-4v4zM24 8h4v-2.4c0-0.933-0.667-1.6-1.6-1.6h-2.4v4zM4 8h4v-4h-2.4c-0.933 0-1.6 0.667-1.6 1.6v2.4z"></path>
</symbol>
<symbol id="icon-close" viewBox="0 0 32 32">
<path d="M22.72 24.213l-6.72-6.72-6.72 6.72-1.493-1.493 6.72-6.72-6.72-6.72 1.493-1.493 6.72 6.72 6.72-6.72 1.493 1.493-6.72 6.72 6.72 6.72z"></path>
</symbol>
<symbol id="icon-arrow-left" viewBox="0 0 32 32">
<path d="M16 26.6c-0.4 0-0.6-0.2-1-0.4l-9.2-9.2c-0.2-0.2-0.4-0.4-0.4-0.4 0-0.2 0-0.4-0.2-0.4v0c0 0 0 0 0 0s0 0 0 0 0 0 0 0 0 0 0 0 0 0 0 0 0 0 0 0 0 0 0 0 0 0 0 0v0c0-0.2 0-0.4 0.2-0.4 0-0.2 0.2-0.4 0.2-0.4l9.4-9.4c0.6-0.6 1.4-0.6 1.8 0 0.6 0.6 0.6 1.4 0 1.8l-7 6.8h15.4c0.8 0 1.4 0.6 1.4 1.4s-0.6 1.4-1.2 1.4h-15.6l7 7c0.6 0.6 0.6 1.4 0 1.8-0.2 0.4-0.4 0.4-0.8 0.4z"></path>
</symbol>
<symbol id="icon-arrow-right" viewBox="0 0 32 32">
<path d="M16 26.6c-0.4 0-0.6-0.2-1-0.4-0.6-0.6-0.6-1.4 0-1.8l7-7h-15.4c-0.6 0-1.2-0.6-1.2-1.4s0.6-1.4 1.2-1.4h15.4l-7-7c-0.6-0.6-0.6-1.4 0-1.8 0.6-0.6 1.4-0.6 1.8 0l9.4 9.4c0.2 0.2 0.2 0.2 0.2 0.4s0 0.4 0 0.4v0c0 0 0 0 0 0s0 0 0 0 0 0 0 0 0 0 0 0 0 0 0 0 0 0 0 0 0 0 0 0 0 0 0 0v0c0 0.2 0 0.4 0 0.4 0 0.2-0.2 0.4-0.2 0.4l-9.4 9.4c-0.2 0.4-0.4 0.4-0.8 0.4z"></path>
</symbol>
</defs>
</svg>
