<?xml version="1.0" encoding="utf-8"?>
<!-- Generator: Adobe Illustrator 26.2.1, SVG Export Plug-In . SVG Version: 6.00 Build 0)  -->
<svg version="1.1" id="Layer_1" xmlns="http://www.w3.org/2000/svg" xmlns:xlink="http://www.w3.org/1999/xlink" x="0px" y="0px"
	 viewBox="0 0 16 16" style="enable-background:new 0 0 16 16;" xml:space="preserve">
<path d="M13.3,7.3H5.5L9,3.8c0.3-0.3,0.3-0.7,0-0.9c-0.3-0.3-0.7-0.3-0.9,0L3.5,7.5V3.4c0-0.4-0.3-0.7-0.7-0.7S2.1,3.1,2.1,3.4v9.1
	c0,0.4,0.3,0.7,0.7,0.7s0.7-0.3,0.7-0.7V8.4l4.7,4.7c0.1,0.1,0.3,0.2,0.5,0.2c0.2,0,0.3-0.1,0.5-0.2c0.3-0.3,0.3-0.7,0-0.9L5.5,8.7
	h7.7c0.4,0,0.7-0.3,0.7-0.7C13.9,7.6,13.6,7.3,13.3,7.3z"/>
</svg>
