<?xml version="1.0" encoding="utf-8"?>
<!-- Generator: Adobe Illustrator 26.2.1, SVG Export Plug-In . SVG Version: 6.00 Build 0)  -->
<svg version="1.1" id="Layer_1" xmlns="http://www.w3.org/2000/svg" xmlns:xlink="http://www.w3.org/1999/xlink" x="0px" y="0px"
	 viewBox="0 0 24 24" style="enable-background:new 0 0 24 24;" xml:space="preserve">
<style type="text/css">
	.st0{fill:#FFFFFF;}
</style>
<g>
	<path class="st0" d="M19.8,23H4.2C2.4,23,1,21.6,1,19.8V4.2C1,2.4,2.4,1,4.2,1h15.6C21.6,1,23,2.4,23,4.2v15.6
		C23,21.6,21.6,23,19.8,23z M18,21h1.8c0.7,0,1.2-0.5,1.2-1.2V18h-3V21z M8,21h8v-8H8V21z M3,18v1.8C3,20.5,3.5,21,4.2,21H6v-3H3z
		 M18,16h3v-3h-3V16z M3,16h3v-3H3V16z M18,11h3V8h-3V11z M8,11h8V3H8V11z M3,11h3V8H3V11z M18,6h3V4.2C21,3.5,20.5,3,19.8,3H18V6z
		 M3,6h3V3H4.2C3.5,3,3,3.5,3,4.2V6z"/>
</g>
</svg>
