<!-- Generated by IcoMoon.io -->
<svg version="1.1" xmlns="http://www.w3.org/2000/svg" width="20" height="20" viewBox="0 0 1045 1024">
<title></title>
<g id="icomoon-ignore">
</g>
<path fill="#000" d="M492.267 1.813c-46.613 3.627-76.48 8.853-114.453 19.733-72 20.587-137.813 56.213-196.053 106.133-16.213 13.76-47.040 45.12-60.8 61.653-68.267 82.453-107.84 178.027-119.040 287.467-1.813 17.493-1.813 75.307 0 93.333 11.307 114.347 54.933 215.467 129.387 299.733 12.907 14.72 40.853 42.027 54.827 53.76 45.973 38.293 96.853 68.373 150.4 88.64 27.413 10.347 26.133 10.027 44.267 10.027 15.147 0 17.28-0.213 25.067-2.88 11.733-3.84 20.907-9.6 29.227-17.92 8.427-8.427 14.080-17.6 18.027-29.227l2.88-8.533 0.533-83.733c0.64-91.52 0.427-87.467 6.933-100.267 3.52-6.72 5.44-8.747 32.853-33.6 21.867-19.733 24.64-21.867 26.133-20.48 1.067 0.853 13.44 11.413 27.627 23.573 26.453 22.507 29.973 26.027 32.853 32.96 5.333 12.693 5.227 11.093 5.867 97.28 0.747 90.88 0.427 87.040 8.747 104 6.613 13.227 18.133 24.64 31.893 31.253 13.44 6.507 24.32 8.747 39.573 7.893 9.92-0.533 13.44-1.28 25.813-5.44 105.707-35.84 202.667-111.893 265.387-208.107 47.147-72.32 74.133-150.187 83.2-240.533 1.707-17.067 1.707-72 0-90.133-6.4-66.347-23.040-126.4-50.88-183.467-25.387-52.053-55.573-94.72-96.427-136.427-29.227-29.653-53.12-49.6-84.907-70.507-77.12-50.88-160.32-79.147-252.8-85.867-13.547-0.96-55.573-1.173-66.133-0.32zM578.133 54.827c92.8 11.627 174.72 47.040 247.467 107.093 15.787 13.12 45.76 43.093 59.307 59.413 63.467 76.587 100.373 167.68 108.16 266.56 1.387 17.707 1.387 54.080 0 71.68-12.053 153.067-96.107 288.853-228.267 368.96-23.573 14.293-58.133 30.613-83.307 39.467-9.707 3.413-12.16 3.84-19.2 3.52-9.707-0.427-15.573-3.627-19.307-10.773l-2.453-4.48-0.64-80c-0.533-75.627-0.747-80.533-2.773-89.6-2.773-12.053-5.973-21.44-10.133-29.76-3.52-7.040-13.76-21.227-17.067-23.467-1.92-1.387-1.6-1.6 3.627-2.24 128.533-15.893 191.787-72.32 207.467-185.067 1.387-10.027 1.813-20.693 1.813-42.667 0-27.84-0.107-29.973-2.773-42.773-6.72-31.253-18.773-56.427-38.4-80.64l-6.293-7.787 2.667-8.213c4.907-15.787 6.293-28.267 5.653-50.773-0.64-22.080-2.133-31.573-8.213-51.2-4.587-14.72-5.013-15.36-12.267-16.213-21.653-2.773-70.827 16.533-115.093 45.013l-7.253 4.693-15.68-3.733c-68.8-16.32-138.133-16.107-207.147 0.533l-13.44 3.2-10.027-6.187c-44.693-27.84-82.24-43.093-107.413-43.413-13.227-0.107-12.693-0.533-17.387 14.613-11.52 36.8-12.053 75.627-1.6 106.56l1.707 5.013-7.147 8.853c-19.2 23.893-31.68 50.347-37.867 80.96-2.24 11.093-2.453 14.827-2.347 42.56 0 25.92 0.427 32.64 2.453 45.867 4.8 31.147 10.347 49.493 21.973 73.067 17.813 35.84 42.773 60.587 80 79.147 27.627 13.867 56.853 21.973 100.48 28.16l8.853 1.173-5.653 6.187c-10.56 11.733-18.667 29.013-22.613 48.533-0.96 4.693-2.24 8.853-2.987 9.28s-6.293 2.453-12.48 4.48c-29.227 9.707-57.92 9.067-79.253-1.707-17.28-8.64-28.8-19.84-43.627-42.56-15.893-24.107-30.72-36.267-54.4-44.48-9.387-3.307-12.48-3.84-20.587-3.84-14.080-0.107-18.667 1.707-18.667 7.68 0 5.76 10.56 16.533 23.467 23.893 2.667 1.6 8.64 6.72 13.12 11.52 12.693 13.227 23.893 31.253 33.28 53.867 2.773 6.507 6.080 13.653 7.467 16.107 13.333 22.827 39.573 37.547 75.947 42.667 15.040 2.133 51.733 1.493 66.453-1.173 5.013-0.853 9.173-1.6 9.387-1.6 0.107 0 0.213 21.12 0.213 46.933 0 50.56-0.107 51.413-5.653 57.493-6.72 7.253-19.733 8.533-34.133 3.413-123.947-43.947-225.28-138.987-276.8-259.84-19.947-46.72-32-96-36.48-148.267-1.387-16.533-1.387-55.040 0-72.64 8.213-104.32 48.64-199.253 118.507-278.4 76.48-86.507 188.693-144 302.293-154.987 6.507-0.64 13.227-1.387 14.933-1.6 1.813-0.213 19.52-0.32 39.467-0.107 25.92 0.213 40.32 0.747 50.667 2.027zM331.947 312.533c18.027 8.96 31.253 16.64 49.707 29.013l14.187 9.493 15.147-4.267c43.307-12.267 79.467-16.96 121.813-15.787 34.987 0.96 62.187 5.12 99.413 15.253l17.387 4.693 16.747-11.093c26.027-17.173 64.107-37.44 66.24-35.307 0.427 0.427 0.747 7.040 0.747 14.72-0.107 17.707-1.707 25.173-10.56 47.253l-6.827 16.853 12.907 13.973c16.213 17.493 24.107 28.16 30.080 40.427 10.133 20.907 13.333 36.587 13.333 64.64 0 40.747-6.187 72.32-19.413 98.56-6.293 12.48-11.84 20.267-21.547 30.4-19.627 20.267-43.413 32.533-81.173 41.813-16.107 3.947-38.613 7.147-88.427 12.693l-39.253 4.373-44.48-4.907c-61.227-6.72-77.76-9.6-103.040-17.6-69.547-22.187-101.76-74.24-102.080-164.8-0.213-28.587 3.947-47.36 14.72-67.627 6.72-12.8 12.16-19.947 27.52-36.587 7.36-8 13.44-15.040 13.44-15.68 0-0.533-3.093-8.853-6.933-18.453-4.373-11.2-7.467-20.8-8.533-26.88-1.6-9.387-2.24-28.8-0.96-32 0.853-2.347 2.24-1.813 19.84 6.827z"></path>
</svg>
