<?xml version="1.0" encoding="utf-8"?>
<!-- Generator: Adobe Illustrator 26.2.1, SVG Export Plug-In . SVG Version: 6.00 Build 0)  -->
<svg version="1.1" id="Layer_1" xmlns="http://www.w3.org/2000/svg" xmlns:xlink="http://www.w3.org/1999/xlink" x="0px" y="0px"
	 viewBox="0 0 12 12" style="enable-background:new 0 0 12 12;" xml:space="preserve">
<style type="text/css">
	.st0{fill:#FFFFFF;}
</style>
<g>
	<path class="st0" d="M10.5,11c-0.1,0-0.3,0-0.4-0.1L8.3,9c-0.8,0.6-1.7,1-2.8,1C3,10,1,8,1,5.5C1,3,3,1,5.5,1S10,3,10,5.5
		c0,1.1-0.4,2-1,2.8l1.8,1.8c0.2,0.2,0.2,0.5,0,0.7C10.8,11,10.6,11,10.5,11z M5.5,2C3.6,2,2,3.6,2,5.5C2,7.4,3.6,9,5.5,9
		c0.9,0,1.8-0.4,2.4-1c0,0,0,0,0,0s0,0,0,0c0.6-0.6,1-1.5,1-2.4C9,3.6,7.4,2,5.5,2z"/>
</g>
</svg>
