<svg aria-hidden="true" style="position: absolute; width: 0; height: 0; overflow: hidden;" version="1.1" xmlns="http://www.w3.org/2000/svg" xmlns:xlink="http://www.w3.org/1999/xlink">
<defs>
<symbol id="git" viewBox="0 0 33 32">
<path d="M15.383 0.057c-1.457 0.113-2.39 0.277-3.577 0.617-2.25 0.643-4.307 1.757-6.127 3.317-0.507 0.43-1.47 1.41-1.9 1.927-2.133 2.577-3.37 5.563-3.72 8.983-0.057 0.547-0.057 2.353 0 2.917 0.353 3.573 1.717 6.733 4.043 9.367 0.403 0.46 1.277 1.313 1.713 1.68 1.437 1.197 3.027 2.137 4.7 2.77 0.857 0.323 0.817 0.313 1.383 0.313 0.473 0 0.54-0.007 0.783-0.090 0.367-0.12 0.653-0.3 0.913-0.56 0.263-0.263 0.44-0.55 0.563-0.913l0.090-0.267 0.017-2.617c0.020-2.86 0.013-2.733 0.217-3.133 0.11-0.21 0.17-0.273 1.027-1.050 0.683-0.617 0.77-0.683 0.817-0.64 0.033 0.027 0.42 0.357 0.863 0.737 0.827 0.703 0.937 0.813 1.027 1.030 0.167 0.397 0.163 0.347 0.183 3.040 0.023 2.84 0.013 2.72 0.273 3.25 0.207 0.413 0.567 0.77 0.997 0.977 0.42 0.203 0.76 0.273 1.237 0.247 0.31-0.017 0.42-0.040 0.807-0.17 3.303-1.12 6.333-3.497 8.293-6.503 1.473-2.26 2.317-4.693 2.6-7.517 0.053-0.533 0.053-2.25 0-2.817-0.2-2.073-0.72-3.95-1.59-5.733-0.793-1.627-1.737-2.96-3.013-4.263-0.913-0.927-1.66-1.55-2.653-2.203-2.41-1.59-5.010-2.473-7.9-2.683-0.423-0.030-1.737-0.037-2.067-0.010zM18.067 1.713c2.9 0.363 5.46 1.47 7.733 3.347 0.493 0.41 1.43 1.347 1.853 1.857 1.983 2.393 3.137 5.24 3.38 8.33 0.043 0.553 0.043 1.69 0 2.24-0.377 4.783-3.003 9.027-7.133 11.53-0.737 0.447-1.817 0.957-2.603 1.233-0.303 0.107-0.38 0.12-0.6 0.11-0.303-0.013-0.487-0.113-0.603-0.337l-0.077-0.14-0.020-2.5c-0.017-2.363-0.023-2.517-0.087-2.8-0.087-0.377-0.187-0.67-0.317-0.93-0.11-0.22-0.43-0.663-0.533-0.733-0.060-0.043-0.050-0.050 0.113-0.070 4.017-0.497 5.993-2.26 6.483-5.783 0.043-0.313 0.057-0.647 0.057-1.333 0-0.87-0.003-0.937-0.087-1.337-0.21-0.977-0.587-1.763-1.2-2.52l-0.197-0.243 0.083-0.257c0.153-0.493 0.197-0.883 0.177-1.587-0.020-0.69-0.067-0.987-0.257-1.6-0.143-0.46-0.157-0.48-0.383-0.507-0.677-0.087-2.213 0.517-3.597 1.407l-0.227 0.147-0.49-0.117c-2.15-0.51-4.317-0.503-6.473 0.017l-0.42 0.1-0.313-0.193c-1.397-0.87-2.57-1.347-3.357-1.357-0.413-0.003-0.397-0.017-0.543 0.457-0.36 1.15-0.377 2.363-0.050 3.33l0.053 0.157-0.223 0.277c-0.6 0.747-0.99 1.573-1.183 2.53-0.070 0.347-0.077 0.463-0.073 1.33 0 0.81 0.013 1.020 0.077 1.433 0.15 0.973 0.323 1.547 0.687 2.283 0.557 1.12 1.337 1.893 2.5 2.473 0.863 0.433 1.777 0.687 3.14 0.88l0.277 0.037-0.177 0.193c-0.33 0.367-0.583 0.907-0.707 1.517-0.030 0.147-0.070 0.277-0.093 0.29s-0.197 0.077-0.39 0.14c-0.913 0.303-1.81 0.283-2.477-0.053-0.54-0.27-0.9-0.62-1.363-1.33-0.497-0.753-0.96-1.133-1.7-1.39-0.293-0.103-0.39-0.12-0.643-0.12-0.44-0.003-0.583 0.053-0.583 0.24 0 0.18 0.33 0.517 0.733 0.747 0.083 0.050 0.27 0.21 0.41 0.36 0.397 0.413 0.747 0.977 1.040 1.683 0.087 0.203 0.19 0.427 0.233 0.503 0.417 0.713 1.237 1.173 2.373 1.333 0.47 0.067 1.617 0.047 2.077-0.037 0.157-0.027 0.287-0.050 0.293-0.050 0.003 0 0.007 0.66 0.007 1.467 0 1.58-0.003 1.607-0.177 1.797-0.21 0.227-0.617 0.267-1.067 0.107-3.873-1.373-7.040-4.343-8.65-8.12-0.623-1.46-1-3-1.14-4.633-0.043-0.517-0.043-1.72 0-2.27 0.257-3.26 1.52-6.227 3.703-8.7 2.39-2.703 5.897-4.5 9.447-4.843 0.203-0.020 0.413-0.043 0.467-0.050 0.057-0.007 0.61-0.010 1.233-0.003 0.81 0.007 1.26 0.023 1.583 0.063zM10.373 9.767c0.563 0.28 0.977 0.52 1.553 0.907l0.443 0.297 0.473-0.133c1.353-0.383 2.483-0.53 3.807-0.493 1.093 0.030 1.943 0.16 3.107 0.477l0.543 0.147 0.523-0.347c0.813-0.537 2.003-1.17 2.070-1.103 0.013 0.013 0.023 0.22 0.023 0.46-0.003 0.553-0.053 0.787-0.33 1.477l-0.213 0.527 0.403 0.437c0.507 0.547 0.753 0.88 0.94 1.263 0.317 0.653 0.417 1.143 0.417 2.020 0 1.273-0.193 2.26-0.607 3.080-0.197 0.39-0.37 0.633-0.673 0.95-0.613 0.633-1.357 1.017-2.537 1.307-0.503 0.123-1.207 0.223-2.763 0.397l-1.227 0.137-1.39-0.153c-1.913-0.21-2.43-0.3-3.22-0.55-2.173-0.693-3.18-2.32-3.19-5.15-0.007-0.893 0.123-1.48 0.46-2.113 0.21-0.4 0.38-0.623 0.86-1.143 0.23-0.25 0.42-0.47 0.42-0.49 0-0.017-0.097-0.277-0.217-0.577-0.137-0.35-0.233-0.65-0.267-0.84-0.050-0.293-0.070-0.9-0.030-1 0.027-0.073 0.070-0.057 0.62 0.213z"></path>
</symbol>
<symbol id="mail" viewBox="0 0 32 32">
<path d="M16 0c-8.837 0-16 7.163-16 16s7.163 16 16 16 16-7.163 16-16-7.163-16-16-16zM8 8h16c0.286 0 0.563 0.061 0.817 0.177l-8.817 10.286-8.817-10.287c0.254-0.116 0.531-0.177 0.817-0.177zM6 22v-12c0-0.042 0.002-0.084 0.004-0.125l5.864 6.842-5.8 5.8c-0.045-0.167-0.069-0.34-0.069-0.517zM24 24h-16c-0.177 0-0.35-0.024-0.517-0.069l5.691-5.691 2.826 3.297 2.826-3.297 5.691 5.691c-0.167 0.045-0.34 0.069-0.517 0.069zM26 22c0 0.177-0.024 0.35-0.069 0.517l-5.8-5.8 5.865-6.842c0.003 0.041 0.004 0.083 0.004 0.125v12z"></path>
</symbol>
<symbol id="facebook" viewBox="0 0 32 32">
<path d="M19 6h5v-6h-5c-3.86 0-7 3.14-7 7v3h-4v6h4v16h6v-16h5l1-6h-6v-3c0-0.542 0.458-1 1-1z"></path>
</symbol>
<symbol id="linkedin" viewBox="0 0 32 32">
<path d="M12 12h5.535v2.837h0.079c0.77-1.381 2.655-2.837 5.464-2.837 5.842 0 6.922 3.637 6.922 8.367v9.633h-5.769v-8.54c0-2.037-0.042-4.657-3.001-4.657-3.005 0-3.463 2.218-3.463 4.509v8.688h-5.767v-18z"></path>
<path d="M2 12h6v18h-6v-18z"></path>
<path d="M8 7c0 1.657-1.343 3-3 3s-3-1.343-3-3c0-1.657 1.343-3 3-3s3 1.343 3 3z"></path>
</symbol>

<symbol id="email2" viewBox="0 0 32 32">
<path d="M26.71 26.66h-21.42c-2.346-0.003-4.247-1.904-4.25-4.25v-12.82c0.003-2.346 1.904-4.247 4.25-4.25h21.42c2.346 0.003 4.247 1.904 4.25 4.25v12.82c-0.003 2.346-1.904 4.247-4.25 4.25h-0zM5.29 6.84c-1.519 0-2.75 1.231-2.75 2.75v0 12.82c0 1.519 1.231 2.75 2.75 2.75v0h21.42c1.519 0 2.75-1.231 2.75-2.75v0-12.82c0-1.519-1.231-2.75-2.75-2.75v0z"></path>
<path d="M16 19.040c-0.002 0-0.004 0-0.007 0-0.965 0-1.855-0.321-2.569-0.863l0.011 0.008-11.675-8.83c-0.194-0.137-0.319-0.361-0.319-0.614 0-0.414 0.336-0.75 0.75-0.75 0.18 0 0.346 0.064 0.475 0.17l-0.001-0.001 11.675 8.84c0.457 0.344 1.034 0.551 1.66 0.551s1.203-0.207 1.667-0.556l-0.007 0.005 11.675-8.84c0.128-0.105 0.294-0.169 0.474-0.169 0.414 0 0.75 0.336 0.75 0.75 0 0.253-0.125 0.476-0.317 0.612l-0.002 0.002-11.675 8.83c-0.703 0.534-1.593 0.855-2.558 0.855-0.002 0-0.005 0-0.007 0h0z"></path>
<path d="M2.085 24.57c-0 0-0.001 0-0.001 0-0.414 0-0.75-0.336-0.75-0.75 0-0.222 0.097-0.422 0.25-0.559l0.001-0.001 9.2-8.205c0.132-0.118 0.308-0.191 0.5-0.191 0.415 0 0.751 0.336 0.751 0.751 0 0.222-0.097 0.422-0.25 0.559l-0.001 0.001-9.2 8.205c-0.129 0.118-0.302 0.19-0.491 0.19-0.003 0-0.006-0-0.009-0h0zM29.915 24.57c-0.003 0-0.006 0-0.009 0-0.189 0-0.362-0.072-0.492-0.191l0.001 0-9.2-8.205c-0.154-0.138-0.251-0.338-0.251-0.56 0-0.415 0.336-0.751 0.751-0.751 0.192 0 0.368 0.072 0.501 0.191l-0.001-0.001 9.195 8.205c0.154 0.138 0.251 0.338 0.251 0.56 0 0.414-0.336 0.75-0.75 0.75-0 0-0.001 0-0.001 0h0z"></path>
</symbol>
<symbol id="email3" viewBox="0 0 32 32">
<path d="M29.002 4h-26.003c-1.657 0-3 1.343-3 3v0 18c0 1.657 1.343 3 3 3v0h26.003c1.657 0 3-1.343 3-3v0-18c0-1.657-1.343-3-3-3v0zM31.002 24.555l-9.459-9.459 9.459-6.028v15.488zM2.998 5h26.003c1.103 0 2 0.897 2 2v0.883l-13.767 8.774c-0.745 0.475-1.697 0.46-2.425-0.035l-13.81-9.386v-0.235c0-1.103 0.897-2 2-2zM0.999 8.443l9.592 6.52-9.592 9.593v-16.113zM29.002 27h-26.003c-0.82-0.001-1.525-0.495-1.833-1.201l-0.005-0.013 10.26-10.26 2.828 1.922c0.505 0.347 1.129 0.554 1.801 0.554 0.639 0 1.235-0.187 1.735-0.51l-0.013 0.008 2.921-1.862 10.149 10.148c-0.314 0.719-1.018 1.213-1.838 1.214h-0z"></path>
</symbol>
<symbol id="facebook2" viewBox="0 0 32 32">
<path d="M24 3h-16c-2.761 0-5 2.239-5 5v0 16c0 2.761 2.239 5 5 5v0h8c0.552 0 1-0.448 1-1v0-8c0-0.552-0.448-1-1-1v0h-1v-2h1c0.552 0 1-0.448 1-1v0-3.5c0-1.381 1.119-2.5 2.5-2.5v0h2.5v2h-1c-1.105 0-2 0.895-2 2v0 2c0 0.552 0.448 1 1 1v0h1.72l-0.5 2h-1.22c-0.552 0-1 0.448-1 1v0 4c0 0.552 0.448 1 1 1s1-0.448 1-1v0-3h1c0.009 0 0.019 0 0.029 0 0.467 0 0.86-0.32 0.969-0.753l0.002-0.007 1-4c0.020-0.074 0.031-0.159 0.031-0.246 0-0.232-0.079-0.446-0.212-0.616l0.002 0.002c-0.185-0.233-0.468-0.381-0.785-0.381-0.012 0-0.024 0-0.037 0.001l0.002-0h-2v-1h2c0.552 0 1-0.448 1-1v0-4c0-0.552-0.448-1-1-1v0h-3.5c-2.483 0.006-4.494 2.017-4.5 4.499v2.501h-1c-0.552 0-1 0.448-1 1v0 4c0 0.552 0.448 1 1 1v0h1v6h-7c-1.657 0-3-1.343-3-3v0-16c0-1.657 1.343-3 3-3v0h16c1.657 0 3 1.343 3 3v0 16c0 1.657-1.343 3-3 3v0h-4c-0.552 0-1 0.448-1 1s0.448 1 1 1v0h4c2.761 0 5-2.239 5-5v0-16c0-2.761-2.239-5-5-5v0z"></path>
</symbol>
<symbol id="facebook1" viewBox="0 0 32 32">
<path d="M18.165 31.788c-0.168 0-0.331-0.060-0.46-0.171-0.154-0.133-0.243-0.327-0.243-0.531v-10.398c0-0.388 0.315-0.703 0.703-0.703h3.025l0.365-2.847h-3.39c-0.388 0-0.703-0.315-0.703-0.703v-2.715c0-1.19 0.29-2.773 2.799-2.773l1.537-0v-2.466c-0.609-0.049-1.54-0.101-2.561-0.101-2.967 0-4.738 1.838-4.738 4.918v3.136c0 0.388-0.315 0.703-0.703 0.703h-2.95v2.847h2.95c0.388 0 0.703 0.315 0.703 0.703v10.398c0 0.204-0.088 0.398-0.243 0.531s-0.359 0.193-0.561 0.164c-7.707-1.123-13.519-7.881-13.519-15.718 0-8.76 7.091-15.886 15.806-15.886s15.806 7.127 15.806 15.886c0 7.839-5.814 14.597-13.522 15.719-0.034 0.005-0.067 0.007-0.101 0.007zM18.867 21.39v8.86c6.62-1.358 11.516-7.317 11.516-14.188 0-7.985-6.461-14.481-14.401-14.481s-14.401 6.496-14.401 14.481c0 6.87 4.895 12.829 11.513 14.188v-8.86h-2.95c-0.388 0-0.703-0.315-0.703-0.703v-4.252c0-0.388 0.315-0.703 0.703-0.703h2.95v-2.433c0-3.9 2.354-6.323 6.143-6.323 1.68 0 3.020 0.129 3.357 0.174 0.349 0.047 0.609 0.344 0.609 0.696v3.803c0 0.388-0.314 0.703-0.702 0.703l-2.24 0.001c-1.262 0-1.394 0.417-1.394 1.368v2.012h3.486c0.202 0 0.394 0.087 0.528 0.239s0.195 0.353 0.169 0.554l-0.546 4.252c-0.045 0.351-0.344 0.613-0.697 0.613h-2.94z"></path>
</symbol>
<symbol id="facebook3" viewBox="0 0 32 32">
<path d="M23.987 2.128c-1.345-0.142-2.697-0.212-4.049-0.207-4.484 0-7.271 2.855-7.271 7.453v3.121h-3.767c-0.368-0-0.666 0.298-0.667 0.666v5.135c-0 0.368 0.298 0.666 0.666 0.667h3.768v10.292c-0 0.368 0.298 0.666 0.666 0.667h5.304c0.368 0 0.666-0.298 0.667-0.666v-10.292h3.755c0.335-0 0.618-0.249 0.661-0.581l0.663-5.134c0.048-0.365-0.21-0.699-0.575-0.747-0.029-0.004-0.058-0.006-0.087-0.006h-4.418v-2.612c0-1.293 0.26-1.833 1.878-1.833l2.719-0.001c0.368 0 0.666-0.298 0.667-0.666v-4.593c0-0.335-0.248-0.618-0.579-0.661zM23.233 6.715l-2.052 0.001c-2.878 0-3.211 1.807-3.211 3.167v3.279c-0 0.368 0.298 0.666 0.666 0.667h4.328l-0.491 3.801h-3.836c-0.368-0-0.666 0.298-0.667 0.666v10.292h-3.97v-10.292c0-0.368-0.298-0.666-0.666-0.667h-3.768v-3.801h3.767c0.368 0 0.666-0.298 0.667-0.666v-3.789c0-3.832 2.22-6.12 5.938-6.12 1.345 0 2.56 0.073 3.296 0.137v3.324z"></path>
</symbol>
<symbol id="linkedin2" viewBox="0 0 32 32">
<path d="M10.001 12c-0 0-0.001 0-0.001 0h-5.333c-0.368-0-0.666 0.298-0.667 0.666 0 0 0 0.001 0 0.001v16c-0 0.368 0.298 0.666 0.666 0.667 0 0 0.001 0 0.001 0h5.333c0.368 0 0.666-0.298 0.667-0.666 0-0 0-0 0-0.001v-16c0-0.368-0.298-0.666-0.666-0.667zM9.333 28h-4v-14.667h4v14.667zM24 12c-1.446 0-2.852 0.477-4 1.358v-0.691c0-0.368-0.298-0.666-0.666-0.667-0 0-0.001 0-0.001 0h-5.333c-0.368-0-0.666 0.298-0.667 0.666 0 0 0 0.001 0 0.001v16c-0 0.368 0.298 0.666 0.666 0.667 0 0 0.001 0 0.001 0h5.333c0.368 0 0.666-0.298 0.667-0.666 0-0 0-0 0-0.001v-7.333c0-1.105 0.895-2 2-2s2 0.895 2 2v7.333c-0 0.368 0.298 0.666 0.666 0.667 0 0 0 0 0.001 0h5.333c0.368 0 0.666-0.298 0.667-0.666 0-0 0-0 0-0.001v-10c-0.004-3.68-2.987-6.662-6.667-6.667zM29.333 28h-4v-6.667c0-1.841-1.492-3.333-3.333-3.333s-3.333 1.492-3.333 3.333v6.667h-4v-14.667h4v1.604c0 0.283 0.179 0.536 0.447 0.629 0.267 0.096 0.565 0.011 0.741-0.212 1.817-2.302 5.156-2.696 7.458-0.879 1.282 1.012 2.028 2.558 2.021 4.192v9.333zM7.824 2.669c-0.157-0.011-0.314-0.012-0.471-0.002-2.012-0.137-3.755 1.383-3.893 3.395-0.006 0.081-0.008 0.162-0.008 0.243-0.017 1.995 1.586 3.627 3.581 3.644 0.081 0.001 0.163-0.001 0.244-0.006h0.038c2.009 0.141 3.751-1.374 3.891-3.382s-1.374-3.751-3.382-3.891zM7.778 8.613c-0.154 0.014-0.309 0.013-0.463-0.004h-0.038c-1.275 0.098-2.388-0.856-2.486-2.131s0.856-2.388 2.131-2.486c0.143-0.011 0.287-0.009 0.43 0.007 1.274-0.117 2.402 0.82 2.519 2.094s-0.82 2.402-2.094 2.519z"></path>
</symbol>
<symbol id="linkedin1" viewBox="0 0 32 32">
<path d="M7.573 10.453h-6.667c-0.213 0-0.427 0.16-0.427 0.427v19.947c0 0.213 0.16 0.427 0.427 0.427h6.613c0.213 0 0.427-0.16 0.427-0.427v-20c0-0.213-0.16-0.373-0.373-0.373zM7.147 30.4h-5.813v-19.147h5.813v19.147zM4.267 0.8c-2.4 0-4.16 1.6-4.16 3.84s1.707 3.84 4.053 3.84h0.107c2.4 0 4.16-1.6 4.16-3.84-0.107-2.24-1.76-3.84-4.16-3.84zM4.267 7.733c-1.973 0-3.307-1.28-3.307-3.040 0-1.813 1.333-3.093 3.307-3.093 1.92 0 3.253 1.227 3.307 3.040 0 1.813-1.333 3.093-3.307 3.093zM23.84 9.973c-2.88 0-4.533 1.227-5.6 2.453v-1.6c0-0.213-0.16-0.427-0.427-0.427h-6.613c-0.107 0-0.213 0.053-0.267 0.107s-0.107 0.16-0.107 0.32c0.107 1.813 0 19.733 0 19.947 0 0.107 0.053 0.213 0.107 0.267s0.16 0.107 0.267 0.107h6.613c0.213 0 0.427-0.16 0.427-0.427v-11.093c0-0.693 0.053-1.173 0.213-1.493 0.267-0.64 1.067-2.187 3.040-2.187s2.933 1.387 2.933 4.107v10.667c0 0.213 0.16 0.427 0.427 0.427h6.613c0.213 0 0.427-0.16 0.427-0.427v-11.36c0-5.867-3.040-9.387-8.053-9.387zM31.040 30.4h-5.813v-10.293c0-3.147-1.333-4.907-3.733-4.907-1.707 0-3.093 1.013-3.787 2.667-0.16 0.427-0.267 0.96-0.267 1.76v10.773h-5.813c0-2.56 0.053-16.16 0-19.147h5.813v2.293c-0.053 0.107-0.053 0.267 0.053 0.373 0.053 0.107 0.213 0.213 0.373 0.213 0.213 0 0.373-0.16 0.373-0.32 0.96-1.44 2.453-3.040 5.6-3.040 4.587 0 7.253 3.147 7.253 8.587v11.040z"></path>
</symbol>

</defs>
</svg>
