<svg aria-hidden="true" style="position: absolute; width: 0; height: 0; overflow: hidden;" version="1.1" xmlns="http://www.w3.org/2000/svg" xmlns:xlink="http://www.w3.org/1999/xlink">
<defs>

<symbol id="arrow-left" viewBox="0 0 32 32">
<path fill="var(--current-color)" d="M25.4 14.6h-15.6l7-7c0.6-0.6 0.6-1.4 0-1.8-0.6-0.6-1.4-0.6-1.8 0l-9.2 9.2c-0.2 0.2-0.2 0.4-0.4 0.4v0.4c0 0.2 0 0.4 0.2 0.6 0 0.2 0.2 0.2 0.2 0.2v0.2l9.4 9.4c0.2 0.2 0.6 0.4 1 0.4s0.6-0.2 1-0.4c0.6-0.6 0.6-1.4 0-1.8l-7.4-7h15.4c0.8 0 1.4-0.6 1.4-1.4s-0.6-1.4-1.2-1.4z"></path>
</symbol>

<symbol id="agree" viewBox="0 0 32 32">
<path fill="var(--current-color)" d="M14.836 31.127c-0.291 0-0.582 0-0.873 0-0.873 0-1.745-0.582-2.327-1.164l-8.436-13.091c-1.164-1.164-0.582-2.909 0.582-4.073 1.455-0.873 3.2-0.582 4.073 0.873l6.109 9.309 10.182-20.073c0.582-1.455 2.327-2.036 3.782-1.164 1.455 0.582 2.036 2.327 1.164 3.782l-11.927 23.855c-0.291 1.164-1.455 1.745-2.327 1.745z"></path>
</symbol>

<symbol id="close" viewBox="0 0 32 32">
<path fill="var(--current-color)" d="M28.6 31.4l-12.6-12.6-12.6 12.6-2.8-2.8 12.6-12.6-12.6-12.6 2.8-2.8 12.6 12.6 12.6-12.6 2.8 2.8-12.6 12.6 12.6 12.6z"></path>
</symbol>

<symbol id="film" viewBox="0 0 32 32">
<path fill="var(--current-color)" d="M26.4 30.667h-20.8c-2.4 0-4.267-1.867-4.267-4.267v-20.8c0-2.4 1.867-4.267 4.267-4.267h20.8c2.4 0 4.267 1.867 4.267 4.267v20.8c0 2.4-1.867 4.267-4.267 4.267zM24 28h2.4c0.933 0 1.6-0.667 1.6-1.6v-2.4h-4v4zM10.667 28h10.667v-10.667h-10.667v10.667zM4 24v2.4c0 0.933 0.667 1.6 1.6 1.6h2.4v-4h-4zM24 21.333h4v-4h-4v4zM4 21.333h4v-4h-4v4zM24 14.667h4v-4h-4v4zM10.667 14.667h10.667v-10.667h-10.667v10.667zM4 14.667h4v-4h-4v4zM24 8h4v-2.4c0-0.933-0.667-1.6-1.6-1.6h-2.4v4zM4 8h4v-4h-2.4c-0.933 0-1.6 0.667-1.6 1.6v2.4z"></path>
</symbol>

<symbol id="heart" viewBox="0 0 32 32">
<path fill="var(--current-color)" d="M16 30.583l-2.24-2.24c-8.32-7.36-13.76-12.32-13.76-18.4 0-4.96 3.84-8.8 8.8-8.8 2.72 0 5.44 1.28 7.2 3.36 1.76-2.080 4.48-3.36 7.2-3.36 4.96 0 8.8 3.84 8.8 8.8 0 6.080-5.44 11.040-13.76 18.4l-2.24 2.24z"></path>
</symbol>

<symbol id="search" viewBox="0 0 32 32">
<path fill="var(--current-color)" d="M28 29.333c-0.267 0-0.8 0-1.067-0.267l-4.8-5.067c-2.133 1.6-4.533 2.667-7.467 2.667-6.667 0-12-5.333-12-12s5.333-12 12-12 12 5.333 12 12c0 2.933-1.067 5.333-2.667 7.467l4.8 4.8c0.533 0.533 0.533 1.333 0 1.867 0 0.533-0.533 0.533-0.8 0.533zM14.667 5.333c-5.067 0-9.333 4.267-9.333 9.333s4.267 9.333 9.333 9.333c2.4 0 4.8-1.067 6.4-2.667 0 0 0 0 0 0s0 0 0 0c1.6-1.6 2.667-4 2.667-6.4 0.267-5.333-4-9.6-9.067-9.6z"></path>
</symbol>

<symbol id="user" viewBox="0 0 32 32">
<path fill="var(--current-color)" d="M32 0h-32v32h32v-32z"></path>
<path fill="#fff" style="fill: var(--color1, #fff)" d="M20.809 24.898c-0.687-0.4-0.982-1-0.982-1.7v-1.7c0-0.1 0.098-0.3 0.098-0.4 0.785-1.1 1.374-2.301 1.767-3.701 0-0.1 0.098-0.3 0.196-0.4 0.393-0.4 0.589-0.8 0.589-1.3v-2.101c0-0.4-0.098-0.8-0.393-1.1-0.098-0.1-0.098-0.3-0.098-0.4v-3.101c0-1.901-0.883-3.501-3.043-4.301-0.982-0.3-1.963-0.5-2.945-0.4-0.982 0-1.963 0.1-2.945 0.4-2.159 0.7-3.043 2.401-3.043 4.301v3.101c0 0.1-0.098 0.3-0.098 0.4-0.196 0.3-0.393 0.7-0.393 1.1v2.101c0 0.5 0.196 1 0.589 1.3 0.098 0.1 0.196 0.2 0.196 0.4 0.393 1.3 0.982 2.501 1.767 3.701 0.098 0.1 0.098 0.2 0.098 0.4v1.7c0 0.8-0.294 1.4-0.982 1.7-1.865 1-11.19 1.9-11.19 7.102h31.999c0.098-5.201-9.325-6.002-11.19-7.102z"></path>
</symbol>

</defs>
</svg>
