<svg width="30" height="30" fill="none" xmlns="http://www.w3.org/2000/svg"><path d="M30 0H0v30h30V0Z" fill="#FF001B"/><path d="M19.5087 23.342c-.6441-.3751-.9202-.9378-.9202-1.5942v-1.5941c0-.0938.092-.2814.092-.3751.7362-1.0316 1.2883-2.1569 1.6564-3.4697 0-.0938.0921-.2813.1841-.3751.3681-.3751.5521-.7502.5521-1.2191v-1.9693c0-.3751-.092-.7502-.3681-1.0315-.092-.0938-.092-.2813-.092-.3751V8.43181c0-1.78172-.8282-3.28212-2.8527-4.03232-.9202-.28132-1.8404-.46887-2.7607-.3751-.9202 0-1.8404.09378-2.7606.3751-2.0245.65643-2.85272 2.2506-2.85272 4.03232v2.90699c0 .0938-.09202.2813-.09202.3751-.18405.2813-.36809.6564-.36809 1.0315v1.9693c0 .4689.18404.9378.55213 1.2191.09202.0938.18405.1875.18405.3751.36805 1.2191.92025 2.3444 1.65635 3.4697.0921.0937.0921.1875.0921.3751v1.5941c0 .7502-.2761 1.3129-.9203 1.5942C8.74212 24.2797 0 25.1237 0 30H29.9993c.092-4.8763-8.7421-5.6265-10.4906-6.658Z" fill="#fff"/></svg>